<?xml version="1.0" encoding="iso-8859-1"?>
<!-- Generator: Adobe Illustrator 19.0.0, SVG Export Plug-In . SVG Version: 6.00 Build 0)  -->
<svg version="1.1" id="Layer_1" xmlns="http://www.w3.org/2000/svg" xmlns:xlink="http://www.w3.org/1999/xlink" x="0px" y="0px"
	 viewBox="0 0 511.991 511.991" style="enable-background:new 0 0 511.991 511.991;" xml:space="preserve">
<g>
	<g>
		<g>
			<path d="M106.67,309.309c-41.172,0-74.671,33.484-74.671,74.655c0,41.171,33.499,74.655,74.671,74.655
				c41.171,0,74.654-33.484,74.654-74.655C181.324,342.793,147.841,309.309,106.67,309.309z M106.67,437.307
				c-29.406,0-53.343-23.938-53.343-53.343c0-29.405,23.937-53.343,53.343-53.343s53.327,23.938,53.327,53.343
				C159.997,413.37,136.077,437.307,106.67,437.307z"/>
			<path d="M504.555,344.809l-56.938-208.301c-0.203-0.742-5.125-18.422-19.203-36.023c-6.609-8.273-15.92-17.335-28.514-24.327
				l-6.078-25.336l-0.156-0.625c-0.359-1.18-9.297-28.827-52.344-28.827c-21.953,0-33.875,9.335-40.016,17.163
				c-6.732,8.594-8.029,17.312-8.154,18.281c-0.094,0.75-0.109,1.492-0.062,2.227l1.67,20.992c-3.467,2.5-6.67,5.297-9.592,8.397
				c-13.016,13.758-17.219,30.062-18.547,40.43c-3.094-0.562-6.625-0.891-10.625-0.891s-7.531,0.328-10.625,0.891
				c-1.328-10.367-5.531-26.672-18.547-40.43c-2.922-3.101-6.125-5.897-9.594-8.397l1.672-20.992l-0.062-2.227
				c-0.125-0.969-1.422-9.688-8.156-18.281c-6.141-7.828-18.062-17.163-40.015-17.163c-43.046,0-51.983,27.647-52.343,28.827
				l-6.234,25.961c-12.594,6.992-21.906,16.054-28.515,24.327c-14.078,17.602-19,35.281-19.203,36.023L7.438,344.809
				C2.641,356.934,0,370.153,0,383.964c0,58.812,47.843,106.655,106.67,106.655c58.546,0,106.232-47.422,106.654-105.874
				l2.781-21.249c9.766,10.938,23.984,17.844,39.797,17.844c15.906,0,30.187-6.984,39.966-18.031l2.797,21.437
				c0.422,58.452,48.109,105.874,106.656,105.874c58.826,0,106.67-47.844,106.67-106.655
				C511.992,370.153,509.351,356.934,504.555,344.809z M318.103,51.698c4.672-5.969,12.484-9,23.219-9
				c24.859,0,31.047,11.773,31.922,13.734l2.5,10.492c-7.203-1.664-15.109-2.617-23.75-2.617c-13.734,0-25.969,1.797-36.656,5.352
				l-0.86-10.82C314.837,57.519,315.822,54.604,318.103,51.698z M243.794,151.923c0.953-0.883,4.438-2.617,12.203-2.617
				s11.234,1.734,12.203,2.617l17.281,131.967c-8.469-5.641-18.641-8.954-29.578-8.954c-10.844,0-20.938,3.266-29.375,8.844
				L243.794,151.923z M138.748,56.433c0.875-1.961,7.062-13.734,31.921-13.734c10.343,0,17.968,2.812,22.702,8.359
				c2.625,3.094,3.734,6.32,4.141,7.82l-0.859,10.781c-10.688-3.555-22.921-5.352-36.655-5.352c-8.641,0-16.546,0.953-23.749,2.617
				L138.748,56.433z M106.67,469.307c-47.062,0-85.342-38.281-85.342-85.343s38.279-85.343,85.342-85.343
				c47.046,0,85.326,38.281,85.326,85.343S153.716,469.307,106.67,469.307z M198.903,330.466
				c-18.484-31.781-52.904-53.155-92.232-53.155c-8.312,0-16.406,0.938-24.188,2.75l37.703-137.935
				c1.547-5.688-1.797-11.547-7.469-13.102c-5.688-1.555-11.562,1.789-13.109,7.477L57.89,289.123
				c-5.594,2.875-10.891,6.249-15.859,10.062l42.921-157.059v-0.008c0.156-0.57,16.062-56.476,75.046-56.476
				c22.999,0,40.202,5.804,51.155,17.249c11.922,12.484,13.328,28.695,13.453,33.641L198.903,330.466z M255.903,359.997
				c-17.641,0-32-14.281-32-31.859s14.359-31.859,32-31.859c17.656,0,32,14.281,32,31.859S273.558,359.997,255.903,359.997z
				 M287.387,136.532c0.141-5.016,1.547-21.18,13.451-33.641c10.953-11.445,28.156-17.249,51.156-17.249
				c24.453,0,44.406,9.281,59.297,27.578c11.545,14.195,15.717,28.781,15.748,28.93l42.922,157.035
				c-4.969-3.812-10.266-7.187-15.859-10.062l-41.717-152.622c-1.547-5.688-7.422-9.031-13.109-7.477
				c-5.672,1.555-9.016,7.414-7.469,13.102l37.701,137.935c-7.781-1.812-15.875-2.75-24.186-2.75
				c-39.328,0-73.75,21.374-92.234,53.155L287.387,136.532z M405.322,469.307c-47.047,0-85.328-38.281-85.328-85.343
				s38.281-85.343,85.328-85.343c47.061,0,85.342,38.281,85.342,85.343S452.383,469.307,405.322,469.307z"/>
			<path d="M405.322,309.309c-41.172,0-74.656,33.484-74.656,74.655c0,41.171,33.484,74.655,74.656,74.655
				c41.17,0,74.67-33.484,74.67-74.655C479.992,342.793,446.492,309.309,405.322,309.309z M405.322,437.307
				c-29.406,0-53.328-23.938-53.328-53.343c0-29.405,23.922-53.343,53.328-53.343c29.404,0,53.342,23.938,53.342,53.343
				C458.664,413.37,434.726,437.307,405.322,437.307z"/>
			<path d="M255.996,317.466c-5.891,0-10.672,4.781-10.672,10.672s4.781,10.672,10.672,10.672c5.89,0,10.671-4.781,10.671-10.672
				S261.887,317.466,255.996,317.466z"/>
		</g>
	</g>
</g>
<g>
</g>
<g>
</g>
<g>
</g>
<g>
</g>
<g>
</g>
<g>
</g>
<g>
</g>
<g>
</g>
<g>
</g>
<g>
</g>
<g>
</g>
<g>
</g>
<g>
</g>
<g>
</g>
<g>
</g>
</svg>
