<?xml version="1.0" encoding="iso-8859-1"?>
<!-- Generator: Adobe Illustrator 18.0.0, SVG Export Plug-In . SVG Version: 6.00 Build 0)  -->
<!DOCTYPE svg PUBLIC "-//W3C//DTD SVG 1.1//EN" "http://www.w3.org/Graphics/SVG/1.1/DTD/svg11.dtd">
<svg version="1.1" id="Capa_1" xmlns="http://www.w3.org/2000/svg" xmlns:xlink="http://www.w3.org/1999/xlink" x="0px" y="0px"
	 viewBox="0 0 325 325" style="enable-background:new 0 0 325 325;" xml:space="preserve">
<g>
	<path d="M319,8H6c-3.313,0-6,2.686-6,6v214.5c0,3.314,2.687,6,6,6h125.099V272H96.006c-3.313,0-6,2.686-6,6v33c0,3.314,2.687,6,6,6
		H235.16c3.313,0,6-2.686,6-6v-33c0-3.314-2.687-6-6-6h-36.845v-37.5H319c3.314,0,6-2.686,6-6V14C325,10.686,322.314,8,319,8z
		 M313,20v153H12V20H313z M229.16,305H102.006v-21h35.093h55.217h36.845V305z M186.315,272h-43.217v-37.5h43.217V272z M12,222.5V185
		h301v37.5H12z"/>
	<path d="M164.713,197.834c-3.93,0-7.11,3.143-7.11,7.025c0,3.882,3.181,7.024,7.11,7.024c3.929,0,7.109-3.143,7.109-7.024
		C171.822,200.977,168.642,197.834,164.713,197.834z"/>
</g>
<g>
</g>
<g>
</g>
<g>
</g>
<g>
</g>
<g>
</g>
<g>
</g>
<g>
</g>
<g>
</g>
<g>
</g>
<g>
</g>
<g>
</g>
<g>
</g>
<g>
</g>
<g>
</g>
<g>
</g>
</svg>
