<?xml version="1.0" encoding="iso-8859-1"?>
<!-- Generator: Adobe Illustrator 19.0.0, SVG Export Plug-In . SVG Version: 6.00 Build 0)  -->
<svg version="1.1" id="Capa_1" xmlns="http://www.w3.org/2000/svg" xmlns:xlink="http://www.w3.org/1999/xlink" x="0px" y="0px"
	 viewBox="0 0 462 462" style="enable-background:new 0 0 462 462;" xml:space="preserve">
<g>
	<path d="M299.083,261.495c1.574,2.07,3.96,3.158,6.374,3.158c1.688,0,3.39-0.532,4.836-1.632c3.517-2.675,4.2-7.694,1.526-11.21
		l-27.452-36.1c-2.675-3.518-7.694-4.2-11.21-1.526c-3.517,2.675-4.2,7.694-1.526,11.21L299.083,261.495z"/>
	<path d="M454,367.908h-6v-24.037c0-4.418-3.582-8-8-8s-8,3.582-8,8v13.046l-189.217-248.82l11.584-15.233
		c2.675-3.517,1.992-8.536-1.525-11.21c-3.516-2.675-8.536-1.992-11.21,1.525l-8.899,11.702L222.368,81.25
		c-2.674-3.517-7.693-4.2-11.21-1.525c-3.517,2.675-4.2,7.694-1.525,11.21l13.051,17.162L32,358.845v-14.973c0-4.418-3.582-8-8-8
		s-8,3.582-8,8v24.037H8c-4.418,0-8,3.582-8,8s3.582,8,8,8h446c4.418,0,8-3.582,8-8S458.418,367.908,454,367.908z M420.258,367.908
		h-20.151l-65.742-86.45c-2.674-3.517-7.692-4.2-11.21-1.525c-3.517,2.674-4.2,7.693-1.525,11.21l58.376,76.764H240.155V184.004
		l10.651,14.007c1.574,2.07,3.959,3.158,6.374,3.158c1.688,0,3.39-0.532,4.837-1.633c3.517-2.674,4.2-7.693,1.525-11.21
		l-25.019-32.9c-0.042-0.055-0.089-0.103-0.132-0.156c-0.102-0.127-0.205-0.253-0.315-0.374c-0.088-0.098-0.18-0.189-0.273-0.282
		c-0.089-0.089-0.178-0.178-0.272-0.264c-0.124-0.113-0.253-0.219-0.383-0.323c-0.052-0.041-0.098-0.087-0.15-0.127
		c-0.024-0.018-0.05-0.032-0.074-0.05c-0.144-0.107-0.293-0.206-0.443-0.303c-0.077-0.05-0.153-0.102-0.231-0.148
		c-0.139-0.083-0.281-0.157-0.424-0.231c-0.097-0.05-0.193-0.103-0.291-0.148c-0.122-0.057-0.247-0.106-0.372-0.156
		c-0.122-0.05-0.244-0.101-0.367-0.145c-0.105-0.037-0.212-0.066-0.319-0.099c-0.143-0.043-0.286-0.088-0.431-0.123
		c-0.099-0.024-0.199-0.041-0.299-0.061c-0.151-0.031-0.303-0.063-0.455-0.084c-0.109-0.016-0.219-0.023-0.329-0.034
		c-0.142-0.014-0.283-0.031-0.426-0.037c-0.131-0.006-0.263-0.003-0.394-0.003c-0.121,0-0.241-0.003-0.362,0.003
		c-0.151,0.007-0.302,0.024-0.453,0.04c-0.101,0.01-0.202,0.017-0.302,0.031c-0.159,0.023-0.318,0.056-0.476,0.088
		c-0.093,0.019-0.187,0.035-0.279,0.057c-0.15,0.037-0.299,0.083-0.448,0.128c-0.101,0.031-0.203,0.059-0.303,0.094
		c-0.128,0.045-0.254,0.098-0.38,0.149c-0.121,0.049-0.242,0.097-0.36,0.152c-0.1,0.047-0.199,0.1-0.298,0.152
		c-0.141,0.073-0.282,0.147-0.419,0.229c-0.078,0.047-0.155,0.099-0.232,0.149c-0.15,0.097-0.299,0.196-0.444,0.303
		c-0.024,0.018-0.049,0.031-0.073,0.05c-0.052,0.04-0.097,0.084-0.148,0.125c-0.131,0.105-0.261,0.212-0.387,0.326
		c-0.093,0.085-0.181,0.173-0.27,0.261c-0.093,0.093-0.186,0.185-0.275,0.283c-0.11,0.121-0.213,0.247-0.315,0.374
		c-0.043,0.053-0.09,0.102-0.132,0.156L64.204,367.908H45.208l187.525-246.595L420.258,367.908z M224.155,367.908H84.304
		l139.851-183.904V367.908z"/>
</g>
<g>
</g>
<g>
</g>
<g>
</g>
<g>
</g>
<g>
</g>
<g>
</g>
<g>
</g>
<g>
</g>
<g>
</g>
<g>
</g>
<g>
</g>
<g>
</g>
<g>
</g>
<g>
</g>
<g>
</g>
</svg>
