<?xml version="1.0" encoding="iso-8859-1"?>
<!-- Generator: Adobe Illustrator 19.0.0, SVG Export Plug-In . SVG Version: 6.00 Build 0)  -->
<svg version="1.1" id="Layer_1" xmlns="http://www.w3.org/2000/svg" xmlns:xlink="http://www.w3.org/1999/xlink" x="0px" y="0px"
	 viewBox="0 0 512.001 512.001" style="enable-background:new 0 0 512.001 512.001;" xml:space="preserve">
<g>
	<g>
		<path d="M446.459,183.142c-1.517-2.077-3.986-3.256-6.547-3.119l-10.418,0.528V82.854c0-4.212-3.415-7.628-7.628-7.628h-21.162
			c-4.212,0-7.628,3.415-7.628,7.628v99.54l-1.26,0.064h-0.001l-73.175,3.155l-28.786-27.589c1.569-10.232-0.835-20.522-6.833-29.07
			c-1.398-1.992-2.958-3.825-4.648-5.503l3.436-24.048c5.539-0.367,10.755-2.592,14.891-6.442c4.754-4.425,7.501-10.42,7.733-16.879
			l1.796-49.915c0.233-6.46-2.077-12.636-6.502-17.392c-4.425-4.755-10.419-7.501-16.879-7.733L254.35,0.015
			c-13.397-0.469-24.644,10.008-25.125,23.381l-1.795,49.915c-0.233,6.46,2.077,12.636,6.502,17.392
			c0.727,0.781,1.5,1.502,2.307,2.173l-2.809,15.438l-9.481-1.662c-0.718-0.126-1.432-0.191-2.143-0.227l4.938-28.175
			c0.801-4.568-0.232-9.184-2.907-12.995c-2.675-3.812-6.664-6.351-11.233-7.152l-39.27-6.882
			c-9.454-1.662-18.491,4.685-20.147,14.138l-2.294,13.096l-13.919-3.479c-2.047-0.513-4.214-0.153-5.984,0.991
			c-1.772,1.143-2.992,2.969-3.369,5.043l-14.928,81.977c-0.725,3.98,1.782,7.832,5.714,8.781l15.48,3.739l-4.964,28.325
			c-1.657,9.452,4.686,18.491,14.139,20.147l39.27,6.882c0.718,0.126,1.432,0.19,2.143,0.226l-5.857,33.422l-24.37,83.413
			L86.23,413.064c-0.027,0.026-0.051,0.056-0.078,0.082c-0.011,0.011-0.024,0.021-0.037,0.033l-19.806,19.806
			c-2.979,2.979-2.979,7.809,0,10.786l53.559,53.56c1.431,1.431,3.37,2.234,5.393,2.234c0.004,0,0.009,0,0.014,0
			c2.028-0.004,3.97-0.815,5.399-2.254l5.985-6.029c7.024-7.076,7.654-18.308,1.464-26.126l-12.076-15.251l70.075-67.954
			c0.029-0.027,0.057-0.056,0.084-0.084c1.036-1.036,1.98-2.161,2.879-3.432c2.393-2.945,4.098-6.272,5.053-9.838l19.541-70.605
			l39.756,70.182V469.04v28.011c0,4.212,3.415,7.628,7.628,7.628h75.745c2.028,0,3.972-0.807,5.403-2.245
			c1.431-1.437,2.231-3.384,2.224-5.411l-0.031-8.495c-0.038-9.972-7.534-18.358-17.439-19.509l-19.898-2.312V362.372
			c0-1.464-0.128-2.927-0.391-4.464c-0.39-3.775-1.538-7.334-3.384-10.531l-43.225-76.306l9.287-53.003l16.711,16.711
			c0.909,0.909,2.025,1.565,3.236,1.923c0.825,0.305,1.715,0.471,2.64,0.471c0.111,0,0.223-0.002,0.335-0.007l90.802-3.914v271.122
			c0,4.212,3.415,7.628,7.628,7.628h21.162c4.212,0,7.628-3.415,7.628-7.628v-272.67c1.791-0.823,3.241-2.312,3.963-4.231
			l13.979-37.145C448.344,187.92,447.976,185.219,446.459,183.142z M244.471,23.944c0.175-4.857,4.182-8.69,9.004-8.69
			c0.109,0,0.219,0.002,0.328,0.006l28.501,1.025c2.17,0.078,4.2,0.938,5.79,2.424c-12.296,13.37-32.577,20.024-44.258,22.906
			L244.471,23.944z M243.266,57.426c10.287-2.197,30.997-7.887,47.311-20.442l-1.387,38.548c-0.085,2.387-1.109,4.61-2.88,6.26
			c-1.773,1.649-4.079,2.504-6.45,2.424l-28.502-1.024c-0.958-0.035-1.887-0.227-2.765-0.55c-0.443-0.267-0.918-0.49-1.421-0.664
			c-0.758-0.443-1.456-1.003-2.074-1.666c-1.65-1.773-2.51-4.063-2.424-6.451L243.266,57.426z M266.458,98.999l-2.202,15.406
			c-2.281-0.849-4.653-1.504-7.1-1.933l-8.702-1.524l2.277-12.515c0.026,0.001,0.052,0.004,0.078,0.005L266.458,98.999z
			 M136.524,160.45l-7.533-1.818L141.17,91.75l7.083,1.771L136.524,160.45z M145.694,208.953c-1.147-0.2-1.948-1.34-1.746-2.488
			l24.266-138.472c0.201-1.147,1.341-1.945,2.489-1.746l39.27,6.882c1.147,0.2,1.948,1.34,1.746,2.488l-17.782,101.472
			l-6.484,37.001c-0.201,1.147-1.339,1.945-2.488,1.745L145.694,208.953z M126.163,474.626c1.4,1.769,1.258,4.308-0.331,5.909
			l-0.592,0.596l-42.752-42.753l8.356-8.356l18.942,23.922c0.005,0.007,0.011,0.013,0.016,0.02L126.163,474.626z M189.421,364.588
			c-0.424,1.584-1.189,3.047-2.272,4.347c-0.147,0.176-0.287,0.36-0.417,0.549c-0.419,0.606-0.837,1.119-1.278,1.564l-68.924,66.837
			l-14.733-18.607l64.476-61.749c0.965-0.924,1.671-2.087,2.046-3.369l23.147-79.225l21.266,3.726l0.317,0.559L189.421,364.588z
			 M335.204,484.168c2.242,0.26,3.937,2.158,3.945,4.413l0.003,0.839h-60.461v-11.818L335.204,484.168z M304.655,221.794
			l-70.773-70.773c-2.979-2.979-7.809-2.979-10.786,0c-2.979,2.979-2.979,7.809,0,10.786l43.083,43.083l-11.608,66.242
			c-0.305,1.742,0.004,3.537,0.876,5.076l44.605,78.742c0.821,1.421,1.314,2.996,1.466,4.682c0.021,0.228,0.052,0.455,0.093,0.679
			c0.136,0.745,0.202,1.42,0.202,2.06v102.559l-23.121-2.686v-96.082c0-1.318-0.341-2.613-0.991-3.76l-49.818-87.945
			c-0.003-0.006-0.006-0.011-0.01-0.017l-3.045-5.375c-0.074-0.131-0.135-0.266-0.2-0.401l-0.129-0.263
			c-1.077-2.18-3.128-3.715-5.522-4.135l-24.09-4.222l23.941-136.621c0.201-1.147,1.339-1.943,2.488-1.746l16.185,2.836
			c0.23,0.064,0.464,0.121,0.704,0.165c0.269,0.049,0.536,0.078,0.802,0.099l15.518,2.72c6.5,1.139,12.185,4.768,16.011,10.219
			c0.89,1.268,1.648,2.599,2.28,3.974l-9.657-9.255c-3.041-2.915-7.87-2.812-10.784,0.229s-2.813,7.87,0.229,10.784l57.835,55.431
			c1.502,1.44,3.533,2.2,5.607,2.114l68.809-2.967l0.874,20.271L304.655,221.794z M408.333,90.481h5.907v90.622h-5.907V90.481z
			 M414.24,496.745h-5.907V233.218h5.907V496.745z M420.992,217.287l-20.018,0.493l-0.883-20.467l18.866-0.955h2.911
			c0.649,0,1.275-0.089,1.877-0.242l5.316-0.269L420.992,217.287z"/>
	</g>
</g>
<g>
</g>
<g>
</g>
<g>
</g>
<g>
</g>
<g>
</g>
<g>
</g>
<g>
</g>
<g>
</g>
<g>
</g>
<g>
</g>
<g>
</g>
<g>
</g>
<g>
</g>
<g>
</g>
<g>
</g>
</svg>
