<?xml version="1.0" encoding="iso-8859-1"?>
<!-- Generator: Adobe Illustrator 18.1.1, SVG Export Plug-In . SVG Version: 6.00 Build 0)  -->
<svg version="1.1" id="Capa_1" xmlns="http://www.w3.org/2000/svg" xmlns:xlink="http://www.w3.org/1999/xlink" x="0px" y="0px"
	 viewBox="0 0 492.25 492.25" style="enable-background:new 0 0 492.25 492.25;" xml:space="preserve">
<g>
	<path style="fill:#010002;" d="M56.25,211.4c-2.667,4.667-4.333,9.667-5,15v8l2,124l-44,92c-1.333,3.334-2.333,6.666-3,10
		c-0.667,7.334,1.167,14.166,5.5,20.5s10.5,9.834,18.5,10.5c12.667,2,22.333-2.666,29-14l47-101c1.333-2.666,2-5,2-7v-4v-77l73,32
		l12,75c2.667,12,10.334,19,23,21c7.333,1.334,14.167-0.334,20.5-5s10.167-10.666,11.5-18v-8l-15-90c-1.333-9.332-6.333-16-15-20
		l-65-29l41-72l21,26c2,2.667,4.667,4.667,8,6l78,22c12,2.667,20.333-1.667,25-13c2-5.333,1.833-10.833-0.5-16.5
		s-6.167-9.5-11.5-11.5l-1-1l-68-20l-52-61c-8-8.667-17.667-14-29-16c-22.667-3.333-39.667,4.667-51,24L56.25,211.4z"/>
	<path style="fill:#010002;" d="M281.25,389.401l-5,37l-135,33l1,23h329c5.337,0,10.17-2.166,14.5-6.5
		c4.333-4.334,6.5-9.166,6.5-14.5l-1-441l-45-11l-25,116l-44,18l-38,107l36,82l-10,31L281.25,389.401z"/>
	<path style="fill:#010002;" d="M189.25,84.4c11.333,0,21.167-4.167,29.5-12.5c8.333-8.335,12.5-18.168,12.5-29.5
		c0-11.335-4.167-21.168-12.5-29.5c-8.334-8.333-18.167-12.5-29.5-12.5c-11.334,0-21.167,4.167-29.5,12.5s-12.5,18.167-12.5,29.5
		s4.167,21.167,12.5,29.5S177.917,84.4,189.25,84.4z"/>
	<path style="fill:#010002;" d="M106.25,90.4c4-6.667,2.333-12-5-16l-20-12c-7.333-4-13-2.333-17,5l-62,107
		c-4,7.333-2.667,12.667,4,16l21,12c6.667,4,12,2.667,16-4L106.25,90.4z"/>
</g>
<g>
</g>
<g>
</g>
<g>
</g>
<g>
</g>
<g>
</g>
<g>
</g>
<g>
</g>
<g>
</g>
<g>
</g>
<g>
</g>
<g>
</g>
<g>
</g>
<g>
</g>
<g>
</g>
<g>
</g>
</svg>
