<?xml version="1.0" encoding="iso-8859-1"?>
<!-- Generator: Adobe Illustrator 19.0.0, SVG Export Plug-In . SVG Version: 6.00 Build 0)  -->
<svg version="1.1" id="Capa_1" xmlns="http://www.w3.org/2000/svg" xmlns:xlink="http://www.w3.org/1999/xlink" x="0px" y="0px"
	 viewBox="0 0 60 60" style="enable-background:new 0 0 60 60;" xml:space="preserve">
<g>
	<g>
		<path d="M14.293,11.197c-0.264,0.189-0.525,0.366-0.78,0.528c-0.466,0.296-0.604,0.914-0.309,1.38
			c0.19,0.301,0.514,0.465,0.845,0.465c0.183,0,0.369-0.05,0.535-0.155c0.287-0.182,0.579-0.38,0.875-0.593
			c0.449-0.322,0.551-0.947,0.229-1.396C15.366,10.978,14.74,10.873,14.293,11.197z"/>
		<path d="M10.175,12.029c0.063-0.241,0.158-0.512,0.282-0.804c0.216-0.509-0.021-1.096-0.529-1.312
			c-0.509-0.217-1.096,0.021-1.312,0.528c-0.162,0.382-0.289,0.746-0.377,1.083c-0.139,0.534,0.181,1.08,0.715,1.22
			c0.084,0.021,0.169,0.032,0.253,0.032C9.652,12.777,10.058,12.479,10.175,12.029z"/>
		<path d="M18.619,8.703c-0.392-0.39-1.025-0.391-1.415,0.002c-0.229,0.229-0.461,0.452-0.692,0.668
			c-0.405,0.376-0.428,1.009-0.052,1.413c0.197,0.212,0.464,0.319,0.732,0.319c0.244,0,0.488-0.089,0.681-0.268
			c0.25-0.231,0.499-0.472,0.747-0.721C19.01,9.727,19.009,9.094,18.619,8.703z"/>
		<path d="M16.667,3.599c0.202,0,0.407-0.062,0.583-0.188c0.264-0.19,0.525-0.369,0.782-0.533c0.465-0.298,0.6-0.917,0.302-1.382
			s-0.916-0.602-1.382-0.302c-0.286,0.184-0.576,0.382-0.871,0.594c-0.448,0.323-0.55,0.948-0.227,1.396
			C16.049,3.454,16.355,3.599,16.667,3.599z"/>
		<path d="M14.003,6.062c0.196-0.05,0.379-0.16,0.519-0.326c0.209-0.25,0.419-0.487,0.627-0.709
			c0.377-0.403,0.356-1.036-0.047-1.414c-0.404-0.377-1.035-0.358-1.414,0.047c-0.232,0.248-0.465,0.512-0.698,0.79
			c-0.355,0.424-0.3,1.054,0.123,1.409C13.37,6.074,13.702,6.138,14.003,6.062z"/>
		<path d="M11.087,12.896c-0.252,0.069-0.482,0.105-0.673,0.105c-0.535-0.029-1.021,0.396-1.048,0.949
			c-0.028,0.552,0.397,1.021,0.949,1.049l0.109,0.002c0.362,0,0.763-0.06,1.19-0.176c0.533-0.146,0.847-0.695,0.702-1.229
			C12.169,13.063,11.62,12.752,11.087,12.896z"/>
		<path d="M10.857,6.826c-0.222,0.281-0.432,0.562-0.629,0.839c-0.32,0.449-0.216,1.073,0.234,1.395
			c0.176,0.125,0.379,0.186,0.58,0.186c0.313,0,0.62-0.146,0.815-0.42c0.179-0.25,0.369-0.505,0.571-0.761
			c0.342-0.434,0.268-1.063-0.166-1.404C11.829,6.318,11.2,6.393,10.857,6.826z"/>
		<path d="M41.97,2.877c0.256,0.164,0.518,0.343,0.782,0.533c0.177,0.127,0.381,0.188,0.583,0.188c0.311,0,0.617-0.145,0.813-0.416
			c0.323-0.447,0.221-1.072-0.227-1.396c-0.294-0.212-0.585-0.41-0.871-0.594c-0.465-0.299-1.083-0.163-1.382,0.302
			S41.505,2.579,41.97,2.877z"/>
		<path d="M49.579,13.001c-0.182,0-0.412-0.036-0.664-0.105c-0.53-0.141-1.082,0.169-1.228,0.701
			c-0.146,0.533,0.168,1.083,0.702,1.229c0.427,0.116,0.828,0.176,1.19,0.176c0.017,0,0.092-0.001,0.109-0.002
			c0.542-0.027,0.934-0.481,0.92-1.023S50.121,13.001,49.579,13.001z"/>
		<path d="M48.961,9.245c0.201,0,0.403-0.061,0.58-0.186c0.45-0.321,0.554-0.945,0.234-1.395c-0.197-0.277-0.407-0.558-0.629-0.839
			c-0.342-0.434-0.971-0.508-1.405-0.166s-0.507,0.971-0.166,1.404c0.202,0.256,0.392,0.511,0.571,0.761
			C48.341,9.1,48.648,9.245,48.961,9.245z"/>
		<path d="M51.762,11.525c-0.088-0.337-0.215-0.701-0.377-1.083c-0.216-0.509-0.802-0.745-1.312-0.528
			c-0.508,0.216-0.745,0.803-0.529,1.312c0.125,0.292,0.219,0.563,0.282,0.804c0.118,0.45,0.523,0.748,0.967,0.748
			c0.083,0,0.168-0.011,0.253-0.032C51.581,12.605,51.901,12.06,51.762,11.525z"/>
		<path d="M46.331,3.776c-0.403-0.376-1.037-0.354-1.413,0.05s-0.354,1.037,0.05,1.413c0.22,0.205,0.439,0.417,0.674,0.652
			l0.019,0.019c0.191,0.191,0.436,0.284,0.682,0.284c0.257,0,0.515-0.102,0.715-0.301c0.391-0.391,0.374-1.04-0.016-1.431
			C46.805,4.227,46.568,3.997,46.331,3.776z"/>
		<path d="M46.489,11.726c-0.255-0.162-0.516-0.339-0.78-0.528c-0.45-0.324-1.074-0.22-1.396,0.229
			c-0.322,0.448-0.219,1.073,0.229,1.396c0.296,0.213,0.588,0.411,0.875,0.593c0.166,0.105,0.352,0.155,0.535,0.155
			c0.331,0,0.655-0.164,0.845-0.465C47.094,12.64,46.956,12.021,46.489,11.726z"/>
		<path d="M42.798,8.705c-0.39-0.392-1.023-0.391-1.415-0.002c-0.391,0.391-0.392,1.023-0.001,1.414
			c0.248,0.249,0.497,0.489,0.747,0.721c0.192,0.179,0.437,0.268,0.681,0.268c0.268,0,0.536-0.107,0.732-0.319
			c0.376-0.404,0.353-1.037-0.052-1.413C43.259,9.157,43.027,8.935,42.798,8.705z"/>
		<path d="M25.501,55h-2v-9c0.552,0,1-0.447,1-1s-0.448-1-1-1v-9c0.552,0,1-0.447,1-1s-0.448-1-1-1v-8h2V13v-2V3
			c0-1.654-1.346-3-3-3s-3,1.346-3,3v8v2v12h2v8c-0.552,0-1,0.447-1,1s0.448,1,1,1v9c-0.552,0-1,0.447-1,1s0.448,1,1,1v9h-2
			c-0.552,0-1,0.447-1,1s0.448,1,1,1h2v2c0,0.553,0.448,1,1,1s1-0.447,1-1v-2h2c0.552,0,1-0.447,1-1S26.053,55,25.501,55z M21.501,3
			c0-0.552,0.449-1,1-1s1,0.448,1,1v8h-2V3z M21.501,23V13h2v10H21.501z"/>
		<path d="M40.501,55h-2v-9c0.552,0,1-0.447,1-1s-0.448-1-1-1v-9c0.552,0,1-0.447,1-1s-0.448-1-1-1v-8h2V13v-2V3
			c0-1.654-1.346-3-3-3s-3,1.346-3,3v8v2v12h2v8c-0.552,0-1,0.447-1,1s0.448,1,1,1v9c-0.552,0-1,0.447-1,1s0.448,1,1,1v9h-2
			c-0.552,0-1,0.447-1,1s0.448,1,1,1h2v2c0,0.553,0.448,1,1,1s1-0.447,1-1v-2h2c0.552,0,1-0.447,1-1S41.053,55,40.501,55z M36.501,3
			c0-0.552,0.449-1,1-1s1,0.448,1,1v8h-2V3z M36.501,23V13h2v10H36.501z"/>
	</g>
</g>
<g>
</g>
<g>
</g>
<g>
</g>
<g>
</g>
<g>
</g>
<g>
</g>
<g>
</g>
<g>
</g>
<g>
</g>
<g>
</g>
<g>
</g>
<g>
</g>
<g>
</g>
<g>
</g>
<g>
</g>
</svg>
