<svg width="60" height="60" version="1.1" viewBox="0 0 60.000002 59.999999" xml:space="preserve" xmlns="http://www.w3.org/2000/svg">
  <g transform="matrix(.15341 0 0 .15341 3.606e-5 -9.2743e-7)" style="stroke-width:6.5185">
    <g style="stroke-width:6.5185">
      <path d="m366.65 93.636c-20.196-47.736-60.589-69.768-111.38-68.544-8.567 0-8.567 14.076 0 13.464 119.95-2.448 130.97 143.82 94.248 229.5-41.004 95.473-147.49 132.19-239.9 90.576-143.82-64.26-99.756-320.08 60.588-324.97 6.12 0 6.12-9.18 0-9.792-88.74-6.12-144.43 75.888-158.51 154.22-6.732 37.944-3.672 80.784 12.852 116.28 20.808 44.676 58.752 70.38 104.04 86.292 104.65 37.332 207.47-29.988 241.74-129.13 17.135-48.348 17.135-110.16-3.672-157.9z"
      style="stroke-width:6.5185" />
      <path d="m278.52 3.06c-6.12-6.732-18.36-0.612-24.48 1.836-12.852 4.284-25.092 9.18-37.944 14.076-4.896 1.836-7.344 7.956-3.06 11.628 13.464 12.852 30.6 20.808 41.616 35.496 4.284 5.508 12.852 0.612 9.18-5.508-7.956-14.076-20.808-22.644-32.436-33.048 7.955-3.06 15.911-6.12 23.867-9.18 7.345-2.448 19.584-3.06 24.48-9.792 0.613-1.224 1e-3 -4.284-1.223-5.508z"
      style="stroke-width:6.5185" />
    </g>
  </g>
</svg>
