<?xml version="1.0" encoding="iso-8859-1"?>
<!-- Generator: Adobe Illustrator 19.0.0, SVG Export Plug-In . SVG Version: 6.00 Build 0)  -->
<svg version="1.1" id="Layer_1" xmlns="http://www.w3.org/2000/svg" xmlns:xlink="http://www.w3.org/1999/xlink" x="0px" y="0px"
	 viewBox="0 0 512 512" style="enable-background:new 0 0 512 512;" xml:space="preserve">
<g>
	<g>
		<path d="M429.188,234.267c-8.028-3.066-16.915-1.203-22.122,4.625c-7.84,8.778-3.118,20.497-0.724,25.127
			c1.475,2.853,4.375,4.491,7.38,4.49c1.284,0,2.586-0.299,3.805-0.929c4.073-2.105,5.667-7.113,3.561-11.186
			c-2.211-4.279-1.808-6.258-1.641-6.443c0.384-0.431,2.128-0.822,3.823-0.175c1.719,0.656,1.719,1.635,1.719,2.219
			c0,4.584,3.715,8.301,8.301,8.301c4.585,0,8.301-3.716,8.301-8.301C441.589,243.98,436.838,237.186,429.188,234.267z"/>
	</g>
</g>
<g>
	<g>
		<path d="M511.523,284.057c-5.435-39.034-47.706-60.097-72.421-69.178c-28.089-10.321-51.145-22.086-71.485-32.464
			c-30.777-15.704-55.086-28.107-81.532-28.107c-17.214,0-51.522,18.448-73.437,35.54c-45.446,35.446-54.987,70.075-54.987,92.884
			c0,20.818-4.221,28.266-7.762,30.85c-6.189,4.513-19.444,0.268-32.265-3.84c-5.652-1.811-11.497-3.684-17.342-5.059
			c-40.476-9.524-75.316-7.755-90.93,4.613C3.238,314.146,0,320.537,0,327.778c0,18.785,28.129,24.094,55.645,26.809
			c29.023,2.864,66.883,3.104,103.173,3.104h168.224c2.864,0,5.526-1.476,7.042-3.907c1.516-2.43,1.672-5.469,0.413-8.043
			c-0.35-0.715-7.959-16.071-20.238-26.12c0.674-1.078,1.268-2.134,1.779-3.158c2.441-4.901,4.047-10.083,4.893-15.334
			c0.064,0.456,0.124,0.911,0.2,1.367c2.372,14.28,9.786,24.283,20.878,28.167c7.27,2.544,15.488,4.44,23.435,6.273
			c16.935,3.906,34.446,7.945,44.108,18.159c1.593,1.684,3.785,2.596,6.031,2.596c0.841,0,1.688-0.127,2.515-0.391
			c0.203-0.064,4.989-1.593,9.76-3.535c5.522-2.248,15.801-6.432,13.458-15.342c-0.877-3.331-2.034-6.681-3.934-9.891
			c0.304-0.074,0.603-0.141,0.912-0.219c9.528-2.434,16.644-0.899,23.526,0.587c7.589,1.638,15.439,3.33,23.649-1.459
			c0.616-0.36,1.182-0.797,1.686-1.3l5.078-5.077h4.069c1.754,0,3.464-0.556,4.882-1.588
			C510.286,312.853,513.275,296.645,511.523,284.057z M158.817,341.089c-33.776,0.001-69.072-0.199-96.829-2.589
			c-39.922-3.436-44.922-10.027-45.386-10.831c0.019-1.403,0.416-3.262,3.069-5.362c9.16-7.256,37.108-10.81,76.82-1.465
			c5.206,1.224,10.732,2.996,16.076,4.708c14.273,4.573,28.957,9.272,41.029,4.725c1.42,3.057,3.363,6.815,5.881,10.814H158.817z
			 M291.534,341.09c4.508-2.829,8.468-5.84,11.862-8.896c3.243,2.57,6.148,5.769,8.564,8.896H291.534z M492.563,304.461h-3.77
			c-2.201,0-4.312,0.874-5.869,2.43l-6.591,6.59c-2.257,0.933-5.07,0.471-11.014-0.81c-7.52-1.622-17.817-3.844-31.134-0.444
			c-7.53,1.922-13.167,2.006-17.49,1.171c-0.079-0.02-0.158-0.031-0.237-0.049c-6.209-1.264-9.671-4.434-12.149-6.705
			c-3.379-3.098-8.629-2.871-11.728,0.509c-3.098,3.379-2.871,8.629,0.509,11.728c4.672,4.284,10.709,8.672,19.379,10.61
			c6.376,2.419,9.304,5.051,10.962,8.127c-1.647,0.721-3.677,1.526-5.819,2.305c-13.114-11.018-31.782-15.323-48.441-19.165
			c-7.856-1.812-15.274-3.523-21.682-5.766c-5.255-1.839-8.614-6.958-9.984-15.215c-1.358-8.171-0.19-17.048,1.468-21.838
			c1.5-4.332-0.796-9.06-5.128-10.559c-4.332-1.498-9.061,0.798-10.559,5.129c-0.982,2.833-1.898,6.695-2.449,11.142
			c-1.297-7.468-4.195-14.598-8.702-20.734c-6.94-9.447-23.601-24.493-57.237-19.115c-4.528,0.724-7.61,4.979-6.887,9.507
			c0.724,4.524,4.976,7.615,9.507,6.886c18.482-2.952,33.124,1.504,41.238,12.55c7.425,10.108,8.375,24.364,2.42,36.317
			c-5.206,10.45-29.539,32.028-71.53,32.028h-49.537c-7.578-8.543-11.839-18.379-13.244-21.987
			c5.004-8.084,7.395-19.94,7.395-36.372c0-15.646,6.313-46.816,48.595-79.794c27.344-21.327,55.273-32.029,63.227-32.029
			c22.456,0,45.196,11.603,73.988,26.293c20.756,10.59,44.282,22.595,73.304,33.259c20.744,7.622,56.316,24.846,61.495,54.555
			C496.527,294.515,494.255,301.419,492.563,304.461z"/>
	</g>
</g>
<g>
	<g>
		<path d="M463.53,268.182c-5.315,0-9.638,4.324-9.638,9.638c0,5.315,4.323,9.639,9.638,9.639s9.638-4.324,9.638-9.639
			C473.168,272.505,468.845,268.182,463.53,268.182z"/>
	</g>
</g>
<g>
</g>
<g>
</g>
<g>
</g>
<g>
</g>
<g>
</g>
<g>
</g>
<g>
</g>
<g>
</g>
<g>
</g>
<g>
</g>
<g>
</g>
<g>
</g>
<g>
</g>
<g>
</g>
<g>
</g>
</svg>
