<?xml version="1.0" encoding="iso-8859-1"?>
<!-- Generator: Adobe Illustrator 19.0.0, SVG Export Plug-In . SVG Version: 6.00 Build 0)  -->
<svg version="1.1" id="Layer_1" xmlns="http://www.w3.org/2000/svg" xmlns:xlink="http://www.w3.org/1999/xlink" x="0px" y="0px"
	 viewBox="0 0 512 512" style="enable-background:new 0 0 512 512;" xml:space="preserve">
<g>
	<g>
		<path d="M249.635,30.815c-0.481-5.454-5.252-9.5-10.702-9.094c-5.487,0.352-9.666,5.071-9.342,10.566
			c0.312,5.314,4.719,9.414,9.973,9.414c0.198,0,0.396-0.006,0.597-0.018c0.097-0.006,0.294-0.02,0.391-0.028
			C246.053,41.17,250.12,36.316,249.635,30.815z"/>
	</g>
</g>
<g>
	<g>
		<path d="M385.013,71.509c-4.1-3.68-10.41-3.351-14.104,0.746c-3.698,4.101-3.372,10.424,0.729,14.123
			c0.055,0.049,0.185,0.164,0.24,0.212c1.889,1.631,4.214,2.429,6.528,2.429c2.807,0,5.599-1.176,7.576-3.468
			C389.569,81.393,389.129,75.126,385.013,71.509z"/>
	</g>
</g>
<g>
	<g>
		<path d="M331.755,37.645c-5.037-2.211-10.921,0.062-13.158,5.095c-2.243,5.047,0.029,10.957,5.076,13.199l0.339,0.146
			c1.248,0.515,2.54,0.759,3.811,0.759c3.929,0,7.656-2.331,9.248-6.188C339.162,45.589,336.783,39.791,331.755,37.645z"/>
	</g>
</g>
<g>
	<g>
		<path d="M407.047,94.327c-0.015-0.02-0.094-0.115-0.109-0.134c-3.51-4.244-9.762-4.814-14.02-1.317
			c-4.258,3.495-4.855,9.813-1.376,14.084c1.977,2.425,4.855,3.683,7.758,3.683c2.221,0,4.455-0.735,6.311-2.248
			C409.892,104.907,410.535,98.608,407.047,94.327z"/>
	</g>
</g>
<g>
	<g>
		<path d="M270.608,22.105l-0.1-0.009c-5.5-0.479-10.305,3.585-10.791,9.086c-0.484,5.502,3.633,10.359,9.134,10.845
			c0.299,0.026,0.596,0.04,0.89,0.04c5.125,0,9.491-3.92,9.95-9.122C280.176,27.444,276.11,22.591,270.608,22.105z"/>
	</g>
</g>
<g>
	<g>
		<path d="M301.99,27.488c-0.091-0.025-0.28-0.073-0.372-0.096c-5.364-1.299-10.762,1.995-12.065,7.36
			c-1.299,5.344,1.969,10.731,7.297,12.064c0.84,0.218,1.683,0.322,2.514,0.322c4.398-0.001,8.429-2.925,9.642-7.372
			C310.459,34.438,307.318,28.941,301.99,27.488z"/>
	</g>
</g>
<g>
	<g>
		<path d="M359.942,52.609c-0.118-0.079-0.237-0.155-0.358-0.229c-4.691-2.913-10.848-1.467-13.761,3.224
			c-2.901,4.667-1.481,10.801,3.156,13.732c1.672,1.077,3.549,1.594,5.406,1.594c3.231,0,6.403-1.563,8.33-4.454
			C365.778,61.881,364.537,55.672,359.942,52.609z"/>
	</g>
</g>
<g>
	<g>
		<path d="M442.773,230.854c-5.483-0.56-10.406,3.429-10.971,8.923l-0.024,0.245c-0.485,5.501,3.578,10.386,9.08,10.871
			c0.301,0.027,0.6,0.04,0.896,0.04c5.122,0,9.482-3.891,9.941-9.091l-9.946-1.041l9.947,1.024
			C452.262,236.331,448.267,231.419,442.773,230.854z"/>
	</g>
</g>
<g>
	<g>
		<path d="M430.555,289.648c-5.032-2.273-10.956-0.036-13.229,4.997l-0.14,0.321c-2.147,5.088,0.238,10.954,5.326,13.101
			c1.27,0.535,2.586,0.789,3.883,0.789c3.865-0.001,7.54-2.255,9.174-6.012C437.816,297.818,435.578,291.915,430.555,289.648z"/>
	</g>
</g>
<g>
	<g>
		<path d="M425.227,120.334c-0.045-0.08-0.142-0.245-0.189-0.323c-2.852-4.727-8.992-6.239-13.72-3.39
			c-4.711,2.84-6.236,8.957-3.43,13.679c1.854,3.182,5.202,4.966,8.648,4.966c1.67,0,3.364-0.42,4.921-1.302
			C426.262,131.241,427.95,125.139,425.227,120.334z"/>
	</g>
</g>
<g>
	<g>
		<path d="M452.381,210.253l-0.006-0.1c-0.325-5.513-5.047-9.674-10.568-9.345c-5.513,0.324-9.717,5.106-9.393,10.619
			c0.313,5.314,4.719,9.413,9.974,9.413c0.197,0,0.397-0.006,0.597-0.018C448.498,220.498,452.705,215.765,452.381,210.253z"/>
	</g>
</g>
<g>
	<g>
		<path d="M438.951,148.573l-9.323,3.616l9.314-3.639c-2.01-5.145-7.808-7.686-12.953-5.676c-5.144,2.011-7.686,7.81-5.676,12.955
			c0.013,0.033,0.063,0.16,0.077,0.193c1.568,3.891,5.301,6.242,9.252,6.242c1.236,0,2.494-0.23,3.712-0.716
			C438.47,159.511,440.966,153.697,438.951,148.573z"/>
	</g>
</g>
<g>
	<g>
		<path d="M448.157,179.04c-0.014-0.066-0.049-0.23-0.064-0.297c-1.225-5.382-6.576-8.745-11.961-7.525
			c-5.371,1.218-8.742,6.559-7.549,11.931c1.002,4.688,5.146,7.91,9.769,7.91c0.668,0,1.347-0.067,2.027-0.207
			C445.788,189.738,449.271,184.45,448.157,179.04z"/>
	</g>
</g>
<g>
	<g>
		<path d="M438.905,260.689c-5.349-1.38-10.795,1.82-12.173,7.17c-1.453,5.328,1.688,10.825,7.016,12.278
			c0.881,0.24,1.766,0.355,2.637,0.355c4.398,0.001,8.429-2.924,9.642-7.372c0.013-0.045,0.05-0.188,0.062-0.233
			C447.466,267.539,444.253,262.067,438.905,260.689z"/>
	</g>
</g>
<g>
	<g>
		<path d="M69.712,166.689c-5.37-1.298-10.773,1.996-12.075,7.362l-0.023,0.097c-1.301,5.368,2.007,10.725,7.374,12.026
			c0.784,0.19,1.569,0.281,2.342,0.281c4.52,0,8.633-3.108,9.744-7.691C78.375,173.396,75.079,167.991,69.712,166.689z"/>
	</g>
</g>
<g>
	<g>
		<path d="M80.651,138.623c-5.093-2.137-10.953,0.263-13.089,5.354l-0.031,0.073c-2.147,5.088,0.238,10.953,5.326,13.101
			c1.27,0.535,2.586,0.789,3.883,0.789c3.9,0,7.607-2.297,9.218-6.116l0.048-0.112C88.142,146.619,85.744,140.759,80.651,138.623z"
			/>
	</g>
</g>
<g>
	<g>
		<path d="M76.852,263.632c-1.224-5.386-6.583-8.762-11.968-7.535c-5.385,1.224-8.759,6.582-7.535,11.967
			c0.011,0.047,0.044,0.19,0.056,0.237c1.11,4.579,5.211,7.666,9.726,7.666c0.776,0,1.566-0.092,2.354-0.282
			C74.852,274.383,78.153,268.999,76.852,263.632z"/>
	</g>
</g>
<g>
	<g>
		<path d="M98.589,316.061c-2.854-4.729-9-6.25-13.729-3.395c-4.729,2.854-6.249,9-3.396,13.729
			c0.023,0.036,0.097,0.157,0.119,0.192c1.896,3.054,5.171,4.736,8.521,4.736c1.798,0,3.618-0.485,5.256-1.502
			C100.052,326.908,101.502,320.754,98.589,316.061z"/>
	</g>
</g>
<g>
	<g>
		<path d="M72.461,235.41c-0.405-5.508-5.195-9.643-10.707-9.239c-5.508,0.404-9.645,5.198-9.24,10.706l0.008,0.099
			c0.387,5.256,4.765,9.218,9.951,9.218c0.249,0,0.5-0.01,0.752-0.028C68.733,245.762,72.866,240.918,72.461,235.41z"/>
	</g>
</g>
<g>
	<g>
		<path d="M63.452,196.12c-5.493-0.485-10.354,3.581-10.84,9.082c-0.004,0.049-0.016,0.196-0.02,0.245
			c-0.405,5.508,3.73,10.325,9.238,10.73c0.251,0.019,0.5,0.027,0.748,0.027c5.188,0,9.57-3.987,9.957-9.244
			C73.02,201.459,68.954,196.606,63.452,196.12z"/>
	</g>
</g>
<g>
	<g>
		<path d="M219.711,33.941c-1.145-5.401-6.448-8.853-11.857-7.707l-0.345,0.078c-5.37,1.282-8.675,6.672-7.395,12.042
			c1.094,4.594,5.201,7.683,9.727,7.683c0.748,0,1.507-0.085,2.266-0.261C217.451,44.585,220.85,39.309,219.711,33.941z"/>
	</g>
</g>
<g>
	<g>
		<path d="M163.015,53.398c-2.757-4.785-8.872-6.43-13.657-3.671c-0.094,0.055-0.273,0.162-0.366,0.22
			c-4.691,2.911-6.128,9.07-3.218,13.763c1.891,3.05,5.161,4.727,8.508,4.727c1.776,0,3.574-0.472,5.198-1.462
			C164.16,64.181,165.746,58.137,163.015,53.398z"/>
	</g>
</g>
<g>
	<g>
		<path d="M190.604,41.483c-1.939-5.171-7.705-7.789-12.875-5.852c-0.102,0.038-0.296,0.115-0.396,0.156
			c-5.104,2.106-7.528,7.948-5.423,13.053c1.59,3.859,5.321,6.189,9.253,6.189c1.247,0,2.514-0.234,3.739-0.729
			C189.974,52.307,192.525,46.604,190.604,41.483z"/>
	</g>
</g>
<g>
	<g>
		<path d="M137.589,69.474c-3.528-4.249-9.833-4.833-14.082-1.307l-0.148,0.125c-4.216,3.567-4.739,9.875-1.172,14.091
			c1.978,2.337,4.798,3.54,7.638,3.54c2.283,0,4.579-0.777,6.458-2.367C140.532,80.028,141.117,73.723,137.589,69.474z"/>
	</g>
</g>
<g>
	<g>
		<path d="M115.078,89.445c-4.146-3.648-10.465-3.245-14.114,0.9c-0.018,0.021-0.102,0.117-0.12,0.138
			c-3.602,4.164-3.129,10.42,1.02,14.041c1.885,1.646,4.22,2.449,6.549,2.449c2.795,0,5.582-1.16,7.566-3.415
			C119.627,99.412,119.224,93.093,115.078,89.445z"/>
	</g>
</g>
<g>
	<g>
		<path d="M85.622,290.689c-2.079-5.116-7.912-7.58-13.028-5.501c-5.117,2.079-7.58,7.912-5.501,13.028
			c0.014,0.034,0.066,0.16,0.081,0.195c1.606,3.831,5.321,6.141,9.232,6.141c1.288,0,2.598-0.251,3.859-0.78
			C85.358,301.636,87.758,295.782,85.622,290.689z"/>
	</g>
</g>
<g>
	<g>
		<path d="M95.888,112.643c-4.692-2.914-10.857-1.471-13.77,3.223l-0.053,0.085c-2.913,4.693-1.444,10.815,3.249,13.728
			c1.63,1.012,3.442,1.493,5.234,1.493c3.365,0,6.662-1.696,8.563-4.759C102.024,121.721,100.58,115.556,95.888,112.643z"/>
	</g>
</g>
<g>
	<g>
		<path d="M502,470.306h-15.861c-0.046-0.073-0.084-0.148-0.132-0.22L320.464,224.462c-3.467-5.144-8.417-8.948-14.07-11.021
			v-27.873l49.963-31.375c3.131-1.966,4.922-5.499,4.656-9.187c-0.266-3.688-2.544-6.928-5.924-8.426l-54.646-24.205
			c-3.092-1.369-6.668-1.083-9.504,0.762c-2.835,1.846-4.545,4.999-4.545,8.382v58.369c-0.002,0.107-0.002,0.215,0,0.322v33.23
			c-5.653,2.073-10.603,5.877-14.07,11.021l-67.808,100.61l-16.124-23.923c-5.403-8.018-14.401-12.804-24.07-12.804
			s-18.667,4.786-24.07,12.804L26.246,470.306H10c-5.523,0-10,4.478-10,10c0,5.522,4.477,10,10,10h21.543
			c0.004,0,0.009,0.001,0.013,0.001c0.005,0,0.011-0.001,0.016-0.001H502c5.523,0,10-4.478,10-10
			C512,474.784,507.523,470.306,502,470.306z M306.394,136.886l23.406,10.368l-23.406,14.698V136.886z M50.364,470.306
			l106.474-157.979c1.706-2.53,4.434-3.981,7.485-3.981c3.051,0,5.779,1.451,7.485,3.981l20.65,30.638l-35.452,52.602
			c-3.086,4.58-1.876,10.795,2.704,13.881c4.582,3.09,10.796,1.876,13.881-2.703L288.909,235.64c1.706-2.53,4.434-3.981,7.485-3.981
			c3.051,0,5.78,1.451,7.485,3.981l158.157,234.666H50.364z"/>
	</g>
</g>
<g>
	<g>
		<circle cx="140" cy="438.22" r="10"/>
	</g>
</g>
<g>
</g>
<g>
</g>
<g>
</g>
<g>
</g>
<g>
</g>
<g>
</g>
<g>
</g>
<g>
</g>
<g>
</g>
<g>
</g>
<g>
</g>
<g>
</g>
<g>
</g>
<g>
</g>
<g>
</g>
</svg>
