<?xml version="1.0" encoding="iso-8859-1"?>
<!-- Generator: Adobe Illustrator 19.0.0, SVG Export Plug-In . SVG Version: 6.00 Build 0)  -->
<svg version="1.1" id="Capa_1" xmlns="http://www.w3.org/2000/svg" xmlns:xlink="http://www.w3.org/1999/xlink" x="0px" y="0px"
	 viewBox="0 0 407.061 407.061" style="enable-background:new 0 0 407.061 407.061;" xml:space="preserve">
<g>
	<g>
		<path d="M401.418,337.941h-184.32c-3.072,0-5.12,2.048-5.12,5.12c0,3.072,2.048,5.12,5.12,5.12h184.32
			c3.072,0,5.12-2.56,5.12-5.12C406.538,339.989,404.49,337.941,401.418,337.941z"/>
	</g>
</g>
<g>
	<g>
		<path d="M285.706,385.045h-78.848c-3.072,0-5.12,2.048-5.12,5.12c0,3.072,2.048,5.12,5.12,5.12h78.848
			c3.072,0,5.12-2.048,5.12-5.12C290.826,387.093,288.778,385.045,285.706,385.045z"/>
	</g>
</g>
<g>
	<g>
		<path d="M383.498,361.493h-79.36c-3.072,0-5.12,2.048-5.12,5.12c0,3.072,2.048,5.12,5.12,5.12h78.848
			c3.072,0,5.632-2.56,5.632-5.12C388.618,363.541,386.57,361.493,383.498,361.493z"/>
	</g>
</g>
<g>
	<g>
		<path d="M336.394,385.045h-20.48c-3.072,0-5.12,2.048-5.12,5.12c0,3.072,2.048,5.12,5.12,5.12h20.48c2.56,0,5.12-2.048,5.12-5.12
			C341.514,387.093,339.466,385.045,336.394,385.045z"/>
	</g>
</g>
<g>
	<g>
		<path d="M176.65,366.613l-24.064-7.168l24.576-8.192c2.56-1.024,4.096-3.584,3.072-6.656l-8.704-25.6
			c-0.512-1.536-1.536-2.56-2.56-3.072c-1.024-0.512-2.56-0.512-4.096-0.512L92.17,339.989l-76.288-22.016
			c-2.56-1.024-5.632,1.024-6.144,3.584l-6.656,27.136c-0.512,1.536,0,2.56,0.512,4.096c0.512,1.024,1.536,2.048,3.072,2.56
			l24.576,7.168l-27.136,8.704c-1.536,0.512-2.56,1.536-3.072,2.56c-0.512,1.024-0.512,2.56-0.512,4.096l8.704,25.6
			c0.512,2.048,2.56,3.584,4.608,3.584c0.512,0,1.024,0,1.536-0.512l75.264-25.6l75.264,22.016c0.512,0,1.024,0,1.536,0
			c2.048,0,4.096-1.536,5.12-3.584l7.68-26.112c0.512-1.536,0-2.56-0.512-4.096C179.21,368.149,178.186,367.125,176.65,366.613z
			 M14.346,346.645l4.608-16.384l56.832,16.384l-28.16,9.728L14.346,346.645z M17.418,395.285l-5.12-15.872l152.064-51.712
			l5.632,15.872L17.418,395.285z M164.874,391.701l-56.32-16.384l28.16-9.728l32.768,9.728L164.874,391.701z"/>
	</g>
</g>
<g>
	<g>
		<path d="M406.026,298.517L249.866,15.381c0-0.512-0.512-0.512-0.512-1.024c-1.024-1.024-2.048-1.536-3.584-1.536
			s-3.072,0.512-3.584,1.536c-0.512,0.512-0.512,0.512-0.512,1.024L119.306,236.565c-9.728-14.848-20.48-27.648-22.528-30.208
			s-6.144-2.56-7.68,0c-4.608,5.12-43.008,52.736-43.008,77.312c0,26.112,20.992,47.104,47.104,47.104h0.512h0.512
			c17.408-0.512,32.768-10.24,40.448-25.088h266.752c0.512,0,1.024,0,1.536,0h0.512c0.512,0,0.512-0.512,1.024-0.512
			c0,0,0.512,0,0.512-0.512c0.512,0,0.512-0.512,0.512-0.512s0,0,0.512-0.512c0-0.512,0.512-1.024,0.512-1.536
			c0-0.512,0-1.024,0-1.536v-0.512C406.538,299.541,406.538,299.029,406.026,298.517z M94.218,320.533c-0.512,0-0.512,0-1.024,0
			c-9.216,0-16.384-7.68-16.384-16.896c0-6.144,8.704-19.968,16.896-30.208c7.68,10.24,16.896,24.064,16.896,30.208
			C110.09,312.853,102.922,320.021,94.218,320.533z M119.818,308.757c0.512-1.536,0.512-3.072,0.512-4.608
			c0-13.312-18.944-36.864-23.04-41.472c-2.048-2.56-6.144-2.56-7.68,0c-3.584,4.608-23.04,28.672-23.04,41.472
			c0,2.048,0.512,4.608,1.024,6.656c-7.168-6.656-11.264-16.384-11.264-26.624c0-15.872,24.064-49.152,36.864-66.048
			c13.312,16.384,36.864,50.176,36.864,66.048C130.058,293.397,125.962,302.101,119.818,308.757z M240.138,295.445H138.25
			c1.024-3.072,1.536-6.656,1.536-10.24c47.104-29.184,80.896-81.92,98.304-153.6c1.024-3.072,1.536-6.144,2.048-9.728V295.445z
			 M138.25,273.429c-2.56-8.192-7.168-17.92-12.8-27.136L240.138,37.909C239.114,70.677,230.41,213.013,138.25,273.429z
			 M250.89,295.445V120.341c13.312,62.976,45.568,141.312,120.32,175.104H250.89z M250.89,37.909l140.288,254.464
			C263.178,249.365,251.914,75.285,250.89,37.909z"/>
	</g>
</g>
<g>
	<g>
		<path d="M121.354,66.581c-1.536-1.536-4.096-2.048-6.144-1.024c-6.144,3.072-12.8,4.608-19.456,4.608
			c-24.064,0-43.52-19.456-43.52-43.52c0-6.656,1.536-13.312,4.608-19.456c1.536-1.536,1.024-4.096-0.512-5.632
			s-4.096-2.048-6.144-1.024C31.754,9.749,20.49,28.181,20.49,48.661c0,29.696,24.064,53.76,53.76,53.76
			c20.48,0,38.912-11.264,48.128-29.696C123.402,70.677,122.89,68.629,121.354,66.581z M74.25,92.181
			c-24.064,0-43.52-19.456-43.52-43.52c0-11.776,4.608-22.528,12.288-30.208c-0.512,2.56-0.512,5.632-0.512,8.192
			c0,29.696,24.064,53.76,53.76,53.76c3.072,0,5.632,0,8.192-0.512C96.266,87.573,85.514,92.181,74.25,92.181z"/>
	</g>
</g>
<g>
</g>
<g>
</g>
<g>
</g>
<g>
</g>
<g>
</g>
<g>
</g>
<g>
</g>
<g>
</g>
<g>
</g>
<g>
</g>
<g>
</g>
<g>
</g>
<g>
</g>
<g>
</g>
<g>
</g>
</svg>
