<?xml version="1.0" encoding="iso-8859-1"?>
<!-- Generator: Adobe Illustrator 18.0.0, SVG Export Plug-In . SVG Version: 6.00 Build 0)  -->
<!DOCTYPE svg PUBLIC "-//W3C//DTD SVG 1.1//EN" "http://www.w3.org/Graphics/SVG/1.1/DTD/svg11.dtd">
<svg version="1.1" id="Capa_1" xmlns="http://www.w3.org/2000/svg" xmlns:xlink="http://www.w3.org/1999/xlink" x="0px" y="0px"
	 viewBox="0 0 454.526 454.526" style="enable-background:new 0 0 454.526 454.526;" xml:space="preserve">
<g>
	<path d="M311.396,137.195c-0.039,0.187-0.08,0.382-0.119,0.573C311.317,137.577,311.358,137.381,311.396,137.195z"/>
	<path d="M310.763,140.214c-0.05,0.239-0.102,0.481-0.154,0.725C310.662,140.694,310.713,140.453,310.763,140.214z"/>
	<path d="M311.092,138.654c-0.049,0.233-0.099,0.473-0.149,0.712C310.993,139.126,311.043,138.888,311.092,138.654z"/>
	<path d="M310.393,141.958c-0.044,0.206-0.088,0.411-0.133,0.62C310.305,142.368,310.348,142.164,310.393,141.958z"/>
	<path d="M309.978,143.885c-0.032,0.148-0.063,0.292-0.096,0.441C309.915,144.177,309.946,144.033,309.978,143.885z"/>
	<path d="M236.804,209.219l-74.874,2.817c-3.008,0.113-5.607,2.138-6.454,5.026l-10.39,35.438c-0.62,2.116-0.208,4.4,1.114,6.166
		c1.321,1.764,3.398,2.803,5.603,2.803h73.934c3.101,0,5.832-2.039,6.712-5.012l11.33-38.255c0.641-2.162,0.2-4.5-1.183-6.281
		C241.214,210.141,239.067,209.128,236.804,209.219z M220.509,247.469h-46.427h-12.932l6.342-21.632l60.094-2.261L220.509,247.469z"
		/>
	<path d="M448.503,293.97c-2.035-0.286-4.047-0.628-6.038-1.018l2.514-7.238c1.268-3.652-0.665-7.641-4.316-8.909
		c-3.649-1.266-7.641,0.664-8.909,4.316l-2.871,8.268c-25.543-8.479-47.029-26.244-64.046-53.034
		c-7.333-11.544-12.532-22.868-16.036-31.822c-13.495-42.142-21.278-78.152-21.433-78.877c-0.047-0.218-0.104-0.431-0.169-0.639
		c-0.01-0.031-0.023-0.062-0.033-0.092c-0.07-0.213-0.15-0.42-0.239-0.622c-0.027-0.062-0.057-0.125-0.086-0.187
		c-0.089-0.187-0.185-0.367-0.288-0.544c-0.026-0.044-0.05-0.09-0.077-0.134c-0.133-0.216-0.276-0.422-0.431-0.619
		c-0.035-0.045-0.073-0.087-0.109-0.132c-0.128-0.156-0.263-0.307-0.403-0.451c-0.03-0.03-0.056-0.065-0.086-0.096
		c-0.022-0.022-0.048-0.04-0.07-0.062c-0.177-0.171-0.36-0.335-0.556-0.486c-0.036-0.028-0.074-0.052-0.111-0.08
		c-0.164-0.122-0.334-0.237-0.508-0.346c-0.071-0.044-0.144-0.086-0.216-0.127c-0.167-0.096-0.339-0.185-0.515-0.267
		c-0.052-0.023-0.102-0.051-0.153-0.073c-0.225-0.098-0.454-0.183-0.689-0.257c-0.063-0.02-0.126-0.035-0.189-0.054
		c-0.184-0.053-0.369-0.098-0.559-0.135c-0.071-0.015-0.144-0.029-0.216-0.041c-0.231-0.038-0.465-0.067-0.702-0.083
		c-0.017-0.001-0.033-0.004-0.051-0.005c-0.21-0.012-0.423-0.014-0.637-0.007c-0.026,0.001-0.051,0.009-0.077,0.01
		c-0.325,0.015-0.65,0.046-0.975,0.107c-66.519,12.56-185.753,22.216-186.95,22.312c-3.218,0.258-5.842,2.684-6.352,5.871
		c-2.634,16.459-6.326,32.133-10.662,46.859c-2.795,6.204-36.942,79.73-89.982,96.955l-2.787-8.868
		c-1.159-3.689-5.09-5.739-8.777-4.579c-3.688,1.159-5.738,5.089-4.578,8.777l2.431,7.734c-1.628,0.201-3.267,0.361-4.925,0.447
		c-3.86,0.199-6.828,3.491-6.629,7.352c0.193,3.737,3.285,6.638,6.985,6.638c0.121,0,0.244-0.003,0.367-0.009
		c2.822-0.146,5.643-0.445,8.459-0.886l6.497,20.669c0.939,2.989,3.699,4.902,6.676,4.902c0.695,0,1.402-0.104,2.101-0.324
		c3.688-1.159,5.738-5.089,4.579-8.776l-6.214-19.769c20.625-6.729,40.785-21.292,59.479-43.075
		c-18.495,37.578-36.277,60.175-36.595,60.572c-1.68,2.102-2.006,4.979-0.841,7.404c1.166,2.425,3.618,3.966,6.309,3.966H313.72
		c3.022,0,5.702-1.938,6.647-4.809l12.315-37.357l14.861,37.153c1.063,2.657,3.637,4.4,6.499,4.4h47.049
		c2.806,0,5.339-1.674,6.44-4.254c1.1-2.581,0.554-5.568-1.389-7.593c-11.831-12.33-22.682-30.827-32.302-51.617
		c14.708,15.038,31.699,25.897,50.465,32.23l-7.831,22.55c-1.268,3.652,0.665,7.641,4.316,8.909
		c0.761,0.264,1.535,0.389,2.297,0.389c2.898,0,5.608-1.813,6.612-4.705l8.136-23.429c2.87,0.614,5.771,1.141,8.712,1.556
		c0.331,0.046,0.66,0.069,0.985,0.069c3.433,0,6.43-2.527,6.923-6.025C454.997,298.051,452.331,294.51,448.503,293.97z
		 M88.227,320.41h-16.64c16.602-24.061,53.256-84.287,67.249-164.361c22.937-1.946,113.159-9.952,172.844-20.23
		c-0.091,0.444-0.186,0.905-0.284,1.376c-0.039,0.187-0.08,0.382-0.119,0.573c-0.061,0.291-0.122,0.585-0.185,0.886
		c-0.049,0.234-0.099,0.473-0.149,0.712c-0.059,0.279-0.118,0.562-0.179,0.848c-0.05,0.239-0.102,0.48-0.154,0.725
		c-0.071,0.335-0.144,0.675-0.217,1.019c-0.044,0.207-0.088,0.411-0.133,0.62c-0.092,0.428-0.186,0.866-0.282,1.308
		c-0.032,0.148-0.063,0.292-0.096,0.441c-0.247,1.139-0.507,2.328-0.779,3.556c-3.83,17.319-10.124,43.362-19.022,72.663
		c-15.368,46.784-32.899,87.242-38.519,99.864H88.227z M358.783,319.798l-20.234-50.588c-1.093-2.731-3.781-4.488-6.717-4.396
		c-2.94,0.091-5.51,2.011-6.431,4.805l-16.744,50.792h-26.763h-14.603c14.149-29.848,25.674-61.85,34.705-91.014
		c7.324-21.963,14.279-45.553,19.437-68.656c1.12,4.287,3.744,14.294,6.572,24.349c2.509,8.923,5.179,17.884,7.099,22.917
		c12.399,38.817,29.761,83.179,51.014,111.791H358.783z"/>
</g>
<g>
</g>
<g>
</g>
<g>
</g>
<g>
</g>
<g>
</g>
<g>
</g>
<g>
</g>
<g>
</g>
<g>
</g>
<g>
</g>
<g>
</g>
<g>
</g>
<g>
</g>
<g>
</g>
<g>
</g>
</svg>
