<svg width="123.71mm" height="30.169mm" version="1.1" viewBox="0 0 123.71306 30.169155" xmlns="http://www.w3.org/2000/svg">
 <defs>
  <clipPath id="a">
   <path d="m0 800h800v-800h-800z"/>
  </clipPath>
 </defs>
 <g transform="translate(34.511 -73.587)">
  <g transform="matrix(.183 0 0 -.183 -46.823 165.51)" style="stroke-width:1.9277">
   <g clip-path="url(#a)" style="stroke-width:1.9277">
    <g transform="translate(394.21 446.07)" style="stroke-width:1.9277">
     <path d="m0 0c-0.061 0-0.12 5e-3 -0.181 5e-3 -29.552 0-53.508-23.957-53.508-53.509s23.956-53.509 53.508-53.509c0.061 0 0.12 5e-3 0.181 5e-3 29.468 0.098 53.328 24.013 53.328 53.504s-23.86 53.406-53.328 53.504" style="fill:#ffbc5a"/>
    </g>
    <g transform="translate(348.85 356.61)" style="stroke-width:1.9277">
     <path d="M 0,0 54.541,76.011 60.848,37.799 54.541,0 Z" style="fill:#115c60"/>
    </g>
    <g transform="translate(457.93 356.61)" style="stroke-width:1.9277">
     <path d="M 0,0 -54.541,76.011 V 0 Z" style="fill:#115c60"/>
    </g>
    <g transform="translate(138.66 352.53)" style="stroke-width:1.9277">
     <path d="M 0,0 54.541,76.011 60.848,37.799 54.541,0 Z" style="fill:#115c60"/>
    </g>
    <g transform="translate(247.75 352.53)" style="stroke-width:1.9277">
     <path d="M 0,0 -54.541,76.011 V 0 Z" style="fill:#115c60"/>
    </g>
    <g transform="translate(555.16 352.53)" style="stroke-width:1.9277">
     <path d="M 0,0 54.541,76.011 60.847,37.799 54.541,0 Z" style="fill:#115c60"/>
    </g>
    <g transform="translate(664.24 352.53)" style="stroke-width:1.9277">
     <path d="M 0,0 -54.541,76.011 V 0 Z" style="fill:#115c60"/>
    </g>
    <g transform="translate(219.05 353.97)" style="stroke-width:1.9277">
     <path d="m0 0 73.985 111.72 18.982 17.459 10.75-59.369-10.75-69.813z" style="fill:#19737c"/>
    </g>
    <g transform="translate(404.98 353.97)" style="stroke-width:1.9277">
     <path d="m0 0-73.524 111.03-19.443 13.53v-124.56z" style="fill:#35a2a5"/>
    </g>
    <g transform="translate(312.02 494.35)" style="stroke-width:1.9277">
     <path d="m0 0-19.442-29.359c-1.456-2.198 0.601-5.024 3.14-4.314l4.36 1.217-0.983-5.265c-0.487-2.613 2.464-4.482 4.616-2.922 3.903 2.83 8.284 6.023 8.284 6.104 0 0.041 5.042-1.354 5.042-1.354z" style="fill:#f4f4f4"/>
    </g>
    <g transform="translate(312.02 494.35)" style="stroke-width:1.9277">
     <path d="m0 0 19.442-29.359c1.456-2.198-0.601-5.024-3.14-4.314l-4.36 1.217 0.983-5.265c0.487-2.613-2.464-4.482-4.616-2.922-3.903 2.83-8.284 6.023-8.284 6.104 0 0.041-0.025 34.539-0.025 34.539" style="fill:#fff"/>
    </g>
    <g transform="translate(396.36 353.97)" style="stroke-width:1.9277">
     <path d="m0 0 53.435 80.691 13.71 12.61 7.764-42.879-7.764-50.422z" style="fill:#19737c"/>
    </g>
    <g transform="translate(530.65 353.97)" style="stroke-width:1.9277">
     <path d="m0 0-53.102 80.189-14.043 9.771v-89.96z" style="fill:#35a2a5"/>
    </g>
    <g transform="translate(463.51 455.36)" style="stroke-width:1.9277">
     <path d="m0 0-14.042-21.204c-1.051-1.588 0.434-3.629 2.268-3.116l3.149 0.879-0.71-3.803c-0.352-1.887 1.78-3.236 3.334-2.11 2.819 2.044 5.983 4.35 5.983 4.408 0 0.03 3.641-0.978 3.641-0.978z" style="fill:#f4f4f4"/>
    </g>
    <g transform="translate(463.51 455.36)" style="stroke-width:1.9277">
     <path d="m0 0 14.042-21.204c1.051-1.588-0.434-3.629-2.268-3.116l-3.149 0.879 0.71-3.803c0.352-1.887-1.78-3.236-3.334-2.11-2.819 2.044-5.983 4.35-5.983 4.408 0 0.03-0.018 24.946-0.018 24.946" style="fill:#fff"/>
    </g>
    <g transform="translate(465.49 352.39)" style="stroke-width:1.9277">
     <path d="m0 0 40.863 65.875 10.676 10.421 7.236-34.145-5.017-40.554z" style="fill:#19737c"/>
    </g>
    <g transform="translate(573 355.58)" style="stroke-width:1.9277">
     <path d="m0 0-44.422 62.939-11.475 7.489 2.139-72.025z" style="fill:#35a2a5"/>
    </g>
    <g transform="translate(516.83 435.16)" style="stroke-width:1.9277">
     <path d="m0 0-10.738-17.311c-0.804-1.296 0.434-2.894 1.89-2.441l2.5 0.779-0.478-3.061c-0.237-1.519 1.502-2.549 2.719-1.61 2.209 1.703 4.687 3.625 4.686 3.671-1e-3 0.024 2.938-0.696 2.938-0.696z" style="fill:#f4f4f4"/>
    </g>
    <g transform="translate(516.84 435.16)" style="stroke-width:1.9277">
     <path d="m0 0 11.746-16.643c0.88-1.246-0.26-2.915-1.741-2.549l-2.542 0.629 0.659-3.027c0.326-1.503-1.348-2.634-2.619-1.769-2.306 1.569-4.894 3.341-4.895 3.387-1e-3 0.024-0.608 19.972-0.608 19.972" style="fill:#fff"/>
    </g>
    <g transform="translate(186.2 403.88)" style="stroke-width:1.9277">
     <path d="m0 0c-26.279 0-47.914-19.869-50.711-45.403h50.711l9.516 15.593z" style="fill:#007c4f"/>
    </g>
    <g transform="translate(141.06 375.8)" style="stroke-width:1.9277">
     <path d="m0 0c-10.023 0-18.275-7.578-19.342-17.318h19.342l3.63 5.948z" style="fill:#007c4f"/>
    </g>
    <g transform="translate(186.2 358.48)" style="stroke-width:1.9277">
     <path d="m0 0h50.711c-2.797 25.534-24.432 45.403-50.711 45.403z" style="fill:#009e61"/>
    </g>
    <g transform="translate(220.82 358.48)" style="stroke-width:1.9277">
     <path d="m0 0h33.928c-1.871 17.083-16.346 30.376-33.928 30.376z" style="fill:#009e61"/>
    </g>
    <g transform="translate(577.57 416.03)" style="stroke-width:1.9277">
     <path d="m0 0c-33.306 0-60.727-25.182-64.273-57.544h64.273l12.061 19.762z" style="fill:#007c4f"/>
    </g>
    <g transform="translate(520.36 380.43)" style="stroke-width:1.9277">
     <path d="m0 0c-12.704 0-23.163-9.605-24.515-21.949h24.515l4.6 7.538z" style="fill:#007c4f"/>
    </g>
    <g transform="translate(577.57 358.48)" style="stroke-width:1.9277">
     <path d="m0 0h64.273c-3.546 32.362-30.967 57.544-64.273 57.544z" style="fill:#009e61"/>
    </g>
    <g transform="translate(621.45 358.48)" style="stroke-width:1.9277">
     <path d="m0 0h43.001c-2.372 21.652-20.718 38.5-43.001 38.5z" style="fill:#009e61"/>
    </g>
    <g transform="translate(319.64 366.7)" style="stroke-width:1.9277">
     <path d="m0 0c-0.731 0-1.435-0.106-2.108-0.288 0.035 0.259 0.059 0.522 0.059 0.791 0 3.312-2.685 5.996-5.996 5.996-0.766 0-1.495-0.149-2.168-0.411-1.681 4.415-5.941 7.558-10.946 7.558-0.01 0-0.02-1e-3 -0.03-1e-3v-21.858h29.225c1e-3 0.057 9e-3 0.111 9e-3 0.168 0 4.443-3.602 8.045-8.045 8.045" style="fill:#3bb753"/>
    </g>
    <g transform="translate(298.45 380.34)" style="stroke-width:1.9277">
     <path d="m0 0c-4.249-0.011-7.956-2.29-10.003-5.683-0.526 0.193-1.093 0.304-1.687 0.304-2.52 0-4.594-1.901-4.871-4.347-0.178 0.016-0.357 0.027-0.539 0.027-2.434 0-4.525-1.453-5.464-3.537-0.382 0.056-0.77 0.094-1.167 0.094-4.443 0-8.045-3.601-8.045-8.044 0-0.227 0.016-0.45 0.034-0.672h31.742z" style="fill:#239b48"/>
    </g>
    <g transform="translate(483.75 357.77)" style="stroke-width:1.9277">
     <path d="m0 0h-16.871l3.163 17.672c0.507 2.834 2.973 4.897 5.852 4.897h7.856l2.777-7.514z" style="fill:#3c5160"/>
    </g>
    <g transform="translate(483.75 357.77)" style="stroke-width:1.9277">
     <path d="m0 0h16.871l-3.163 17.672c-0.507 2.834-2.973 4.897-5.852 4.897h-7.856z" style="fill:#475d6b"/>
    </g>
    <g transform="translate(392.16 358.44)" style="stroke-width:1.9277">
     <path d="m0 0h-1.158v34.127h1.158l0.673-22.07z" style="fill:#684b1c"/>
    </g>
    <path d="m393.31 358.44h-1.158v34.127h1.158z" style="fill:#845f29"/>
    <g transform="translate(392.16 405.78)" style="stroke-width:1.9277">
     <path d="m0 0c-3.639-6.349-9.78-17.802-9.78-24.775 0-3.777 1.201-5.608 3.205-6.971 1.97-1.339 4.269-1.995 6.575-1.99l1.751 23.824z" style="fill:#239b48"/>
    </g>
    <g transform="translate(392.16 405.78)" style="stroke-width:1.9277">
     <path d="m0 0c3.639-6.349 9.78-17.802 9.78-24.775 0-3.777-1.201-5.608-3.205-6.971-1.97-1.339-4.269-1.995-6.575-1.99z" style="fill:#3bb753"/>
    </g>
    <g transform="translate(573.33 343.61)" style="stroke-width:1.9277">
     <path d="m0 0h-4.259v41.699h4.259l1.175-25.006z" style="fill:#684b1c"/>
    </g>
    <path d="m577.59 343.61h-4.258v41.699h4.258z" style="fill:#845f29"/>
    <g transform="translate(573.33 456.09)" style="stroke-width:1.9277">
     <path d="m0 0c-3e-3 2e-3 -5e-3 4e-3 -7e-3 6e-3 -9.705 0.069-17.594-7.777-17.594-17.466 0-0.653 0.036-1.298 0.107-1.932 0.59-5.302-0.696-10.695-4.15-14.76-4.178-4.917-6.699-11.284-6.699-18.241 0-15.623 12.7-28.279 28.339-28.209 2e-3 2e-3 3e-3 2e-3 4e-3 4e-3l6.814 34.585z" style="fill:#239b48"/>
    </g>
    <g transform="translate(594.71 421.94)" style="stroke-width:1.9277">
     <path d="m0 0c-3.454 4.066-4.74 9.459-4.15 14.761 0.071 0.634 0.107 1.278 0.107 1.931 0 9.601-7.749 17.387-17.332 17.46v-80.598c15.516 0.072 28.073 12.671 28.073 28.205 0 6.958-2.521 13.324-6.698 18.241" style="fill:#3bb753"/>
    </g>
    <g transform="translate(685.08 348.79)" style="stroke-width:1.9277">
     <path d="m0 0h-570.17c-3.129 0-5.666 2.537-5.666 5.667 0 3.129 2.537 5.666 5.666 5.666h570.17c3.13 0 5.667-2.537 5.667-5.666 0-3.13-2.537-5.667-5.667-5.667" style="fill:#13b780"/>
    </g>
    <g transform="translate(118.28 468.57)" style="stroke-width:1.9277">
     <path d="m0 0c-0.384 0.017-0.77 0.029-1.159 0.029-11.182 0-20.653-7.314-23.899-17.418-0.336 0.023-0.673 0.039-1.014 0.039-5.441 0-10.186-2.964-12.72-7.363-1.52 0.514-3.147 0.798-4.841 0.798-0.251 0-0.502-7e-3 -0.751-0.019-9.157-0.448-8.645-14.247 0.523-14.247h43.861l9.462 11.755z" style="fill:#f4f4f4"/>
    </g>
    <g transform="translate(164.42 444.63)" style="stroke-width:1.9277">
     <path d="m0 0c-0.249 0.012-0.499 0.018-0.751 0.018-2.713 0-5.257-0.719-7.457-1.971-2.251 5.512-7.663 9.398-13.985 9.398-0.5 0-0.995-0.025-1.483-0.073-3.362 9.328-12.091 16.09-22.461 16.562v-38.181h45.614c9.168 0 9.68 13.798 0.523 14.247" style="fill:#fff"/>
    </g>
    <g transform="translate(695.81 489.12)" style="stroke-width:1.9277">
     <path d="m0 0c-0.346 0.016-0.693 0.026-1.043 0.026-10.069 0-18.596-6.586-21.52-15.683-0.302 0.02-0.605 0.035-0.912 0.035-4.899 0-9.172-2.669-11.453-6.63-1.369 0.463-2.834 0.718-4.359 0.718-0.227 0-0.452-5e-3 -0.676-0.016-8.246-0.404-7.785-12.828 0.47-12.828h39.493l8.52 10.584z" style="fill:#f4f4f4"/>
    </g>
    <g transform="translate(737.35 467.57)" style="stroke-width:1.9277">
     <path d="m0 0c-0.224 0.011-0.45 0.017-0.676 0.017-2.443 0-4.733-0.648-6.715-1.776-2.027 4.964-6.899 8.463-12.592 8.463-0.45 0-0.896-0.023-1.335-0.066-3.027 8.399-10.887 14.488-20.224 14.912v-34.378h41.071c8.255 0 8.716 12.424 0.471 12.828" style="fill:#fff"/>
    </g>
    <g transform="translate(497.51 502.29)" style="stroke-width:1.9277">
     <path d="m0 0c-0.29 0.013-0.581 0.022-0.874 0.022-8.44 0-15.587-5.52-18.037-13.145-0.253 0.017-0.508 0.029-0.765 0.029-4.106 0-7.687-2.237-9.599-5.556-1.148 0.388-2.375 0.601-3.654 0.601-0.19 0-0.379-4e-3 -0.567-0.013-6.91-0.339-6.524-10.752 0.395-10.752h33.101l7.141 8.871z" style="fill:#f4f4f4"/>
    </g>
    <g transform="translate(532.33 484.23)" style="stroke-width:1.9277">
     <path d="m0 0c-0.188 9e-3 -0.377 0.014-0.567 0.014-2.047 0-3.967-0.543-5.628-1.488-1.698 4.16-5.782 7.093-10.554 7.093-0.377 0-0.751-0.02-1.119-0.055-2.537 7.039-9.125 12.143-16.951 12.498v-28.814h34.425c6.919 0 7.305 10.413 0.394 10.752" style="fill:#fff"/>
    </g>
    <g transform="translate(348.35 439.66)" style="stroke-width:1.9277">
     <path d="m0 0c-0.221 0.01-0.443 0.017-0.667 0.017-6.434 0-11.884-4.209-13.752-10.023-0.193 0.013-0.387 0.022-0.583 0.022-3.131 0-5.861-1.705-7.319-4.236-0.875 0.296-1.811 0.459-2.786 0.459-0.145 0-0.289-4e-3 -0.432-0.011-5.269-0.258-4.975-8.198 0.301-8.198h25.238l5.445 6.764z" style="fill:#f4f4f4"/>
    </g>
    <g transform="translate(374.9 425.89)" style="stroke-width:1.9277">
     <path d="m0 0c-0.143 7e-3 -0.287 0.01-0.432 0.01-1.561 0-3.025-0.413-4.291-1.134-1.295 3.172-4.409 5.408-8.047 5.408-0.288 0-0.573-0.015-0.853-0.042-1.935 5.367-6.958 9.259-12.925 9.53v-21.97h26.247c5.276 0 5.57 7.94 0.301 8.198" style="fill:#fff"/>
    </g>
    <g transform="translate(473.52 354.62)" style="stroke-width:1.9277">
     <path d="m0 0c-0.848 0-1.666-0.123-2.448-0.335 0.04 0.302 0.068 0.607 0.068 0.92 0 3.846-3.118 6.963-6.964 6.963-0.889 0-1.736-0.173-2.518-0.477-1.952 5.128-6.9 8.778-12.713 8.778-0.012 0-0.023-1e-3 -0.035-1e-3v-25.387h33.944c1e-3 0.066 0.01 0.129 0.01 0.195 0 5.161-4.184 9.344-9.344 9.344" style="fill:#3bb753"/>
    </g>
    <g transform="translate(448.91 370.46)" style="stroke-width:1.9277">
     <path d="m0 0c-4.935-0.013-9.241-2.659-11.617-6.601-0.612 0.225-1.271 0.354-1.961 0.354-2.927 0-5.335-2.209-5.657-5.049-0.207 0.018-0.415 0.031-0.626 0.031-2.827 0-5.256-1.688-6.346-4.108-0.444 0.065-0.894 0.11-1.355 0.11-5.161 0-9.344-4.184-9.344-9.344 0-0.263 0.018-0.522 0.039-0.78h36.867z" style="fill:#239b48"/>
    </g>
    <g transform="translate(608.25 345.32)" style="stroke-width:1.9277">
     <path d="m0 0h-16.871l3.163 17.672c0.507 2.834 2.973 4.897 5.852 4.897h7.856l2.777-7.514z" style="fill:#3c5160"/>
    </g>
    <g transform="translate(608.25 345.32)" style="stroke-width:1.9277">
     <path d="m0 0h16.871l-3.163 17.672c-0.507 2.834-2.973 4.897-5.852 4.897h-7.856z" style="fill:#475d6b"/>
    </g>
    <g transform="translate(178.05 345.32)" style="stroke-width:1.9277">
     <path d="m0 0h-27.84l5.22 29.162c0.837 4.677 4.905 8.081 9.656 8.081h12.964l4.583-12.4z" style="fill:#3c5160"/>
    </g>
    <g transform="translate(178.05 345.32)" style="stroke-width:1.9277">
     <path d="m0 0h27.84l-5.22 29.162c-0.837 4.677-4.905 8.081-9.656 8.081h-12.964z" style="fill:#475d6b"/>
    </g>
    <g transform="translate(234.51 346.83)" style="stroke-width:1.9277">
     <path d="m0 0h-3.252v31.841h3.252l0.897-19.094z" style="fill:#684b1c"/>
    </g>
    <path d="m237.76 346.83h-3.252v31.841h3.252z" style="fill:#845f29"/>
    <g transform="translate(234.51 432.72)" style="stroke-width:1.9277">
     <path d="m0 0c-2e-3 2e-3 -3e-3 3e-3 -6e-3 5e-3 -7.41 0.052-13.434-5.939-13.434-13.337 0-0.499 0.028-0.991 0.082-1.475 0.45-4.049-0.531-8.167-3.169-11.271-3.19-3.754-5.115-8.616-5.115-13.929 0-11.929 9.697-21.593 21.639-21.539 1e-3 1e-3 2e-3 1e-3 3e-3 2e-3l5.203 26.409z" style="fill:#239b48"/>
    </g>
    <g transform="translate(250.83 406.65)" style="stroke-width:1.9277">
     <path d="m0 0c-2.638 3.104-3.62 7.223-3.169 11.271 0.054 0.484 0.082 0.976 0.082 1.475 0 7.331-5.917 13.276-13.235 13.332v-61.544c11.849 0.056 21.437 9.676 21.437 21.537 0 5.313-1.925 10.175-5.115 13.929" style="fill:#3bb753"/>
    </g>
    <g transform="translate(341.93 365.18)" style="stroke-width:1.9277">
     <path d="m0 0-15.542-18.643h34.75l-7.625 18.643-9.75 1.917z" style="fill:#771818"/>
    </g>
    <g transform="translate(348.68 362.6)" style="stroke-width:1.9277">
     <path d="m0 0-4.917 6.403h26.289l20.961-22.463h-26.25z" style="fill:#d34a3c"/>
    </g>
    <g transform="translate(343.77 369)" style="stroke-width:1.9277">
     <path d="m0 0-21-22.462h14.917l6.083 18.893 1.108 1.125z" style="fill:#8c221f"/>
    </g>
    <g transform="translate(343.77 369)" style="stroke-width:1.9277">
     <path d="m0 0 21-22.462h-16.5l-4.5 18.893z" style="fill:#a02e28"/>
    </g>
    <g transform="translate(705.33 337.46)" style="stroke-width:1.9277">
     <path d="m0 0h-610.67c-3.129 0-5.666 2.537-5.666 5.667 0 3.129 2.537 5.666 5.666 5.666h610.67c3.13 0 5.667-2.537 5.667-5.666 0-3.13-2.537-5.667-5.667-5.667" style="fill:#3c5160"/>
    </g>
   </g>
  </g>
 </g>
</svg>
