<?xml version="1.0" encoding="UTF-8" standalone="no"?>
<svg
   xmlns:dc="http://purl.org/dc/elements/1.1/"
   xmlns:cc="http://creativecommons.org/ns#"
   xmlns:rdf="http://www.w3.org/1999/02/22-rdf-syntax-ns#"
   xmlns:svg="http://www.w3.org/2000/svg"
   xmlns="http://www.w3.org/2000/svg"
   xmlns:sodipodi="http://sodipodi.sourceforge.net/DTD/sodipodi-0.dtd"
   xmlns:inkscape="http://www.inkscape.org/namespaces/inkscape"
   width="111.85569"
   height="132.60056"
   version="1.1"
   viewBox="0 0 111.85569 88.40037"
   xmlSpace="preserve"
   id="svg32"
   sodipodi:docname="lamp.svg"
   inkscape:version="0.92.1 r">
  <metadata
     id="metadata36">
    <rdf:RDF>
      <cc:Work
         rdf:about="">
        <dc:format>image/svg+xml</dc:format>
        <dc:type
           rdf:resource="http://purl.org/dc/dcmitype/StillImage" />
        <dc:title></dc:title>
      </cc:Work>
    </rdf:RDF>
  </metadata>
  <sodipodi:namedview
     pagecolor="#ffffff"
     bordercolor="#666666"
     borderopacity="1"
     objecttolerance="10"
     gridtolerance="10"
     guidetolerance="10"
     inkscape:pageopacity="0"
     inkscape:pageshadow="2"
     inkscape:window-width="1280"
     inkscape:window-height="699"
     id="namedview34"
     showgrid="false"
     showguides="true"
     inkscape:guide-bbox="true"
     inkscape:zoom="2.8284272"
     inkscape:cx="-1.1203318"
     inkscape:cy="85.402152"
     inkscape:window-x="0"
     inkscape:window-y="22"
     inkscape:window-maximized="0"
     inkscape:current-layer="g30"
     fit-margin-top="0"
     fit-margin-left="0"
     fit-margin-right="0"
     fit-margin-bottom="0" />
  <defs
     id="defs7">
    <linearGradient
       id="fill-gradient"
       x1="0"
       y1="120"
       x2="0"
       y2="0">
      <stop
         offset="0"
         stop-color="#f0bd25"
         stop-opacity="0.4"
         id="stop2" />
      <stop
         offset="120"
         stop-color="#f0bd25"
         stop-opacity="1"
         id="stop4" />
    </linearGradient>
  </defs>
  <g
     transform="translate(0.307767,-22.101093)"
     id="g30">
    <path
       d="m 70.336,72.154 c 0,-6.0278 -1.6824,-11.476 -4.401,-15.389 -0.92925,-1.3376 -1.9747,-2.4936 -3.1189,-3.4309 h -14.297 c -0.47204,0.38616 -0.9274,0.81124 -1.3624,1.2697 -0.62527,0.65307 -1.2104,1.3753 -1.7559,2.1619 -2.7192,3.9128 -4.401,9.3617 -4.401,15.389 0,1.9889 0.18597,3.9147 0.53073,5.7448 0.22984,1.2209 1.3,2.1026 2.5431,2.1026 h 23.188 c 0.77726,0 1.4859,-0.34538 1.9654,-0.90083 0.28792,-0.33487 0.49305,-0.74451 0.57831,-1.2017 0.34476,-1.8301 0.53073,-3.7553 0.53073,-5.7448 z"
       id="path9"
       inkscape:connector-curvature="0"
       style="fill:#063c51" />
    <path
       d="m 70.336,72.154 c 0,-6.0278 -1.6824,-11.476 -4.401,-15.389 -0.92925,-1.3376 -1.9747,-2.4936 -3.1189,-3.4309 h -14.297 c -0.47204,0.38616 -0.9274,0.81124 -1.3624,1.2697 17.59,8.5579 18.39,22.893 18.39,22.893 l 3.6799,1.6046 c 0.28792,-0.33487 0.49305,-0.74451 0.57831,-1.2017 0.34476,-1.8301 0.53073,-3.7553 0.53073,-5.7448 z"
       id="path11"
       inkscape:connector-curvature="0"
       style="fill:#01374b" />
    <path
       d="m 69.875,77.492 c -0.02348,0.13345 -0.04757,0.26691 -0.07229,0.39913 -0.2286,1.2233 -1.3006,2.1069 -2.5449,2.1069 h -23.181 c -1.2444,0 -2.3151,-0.88353 -2.5443,-2.1062 -0.02471,-0.13284 -0.04881,-0.26568 -0.07167,-0.39914 h 28.414 z"
       id="path13"
       inkscape:connector-curvature="0"
       style="fill:#337b9c" />
    <rect
       transform="scale(1,-1)"
       x="47.09"
       y="-54.719002"
       width="17.156"
       height="2.7723"
       id="rect15"
       style="fill:#337b9c" />
    <path
       d="M 47.09,5.498 V 3.8817 c 0,-2.1433 1.7374,-3.8807 3.8807,-3.8807 h 9.3944 c 2.1433,0 3.8807,1.7374 3.8807,3.8807 V 5.498 Z"
       id="path17"
       inkscape:connector-curvature="0"
       style="fill:#337b9c" />
    <rect
       transform="scale(1,-1)"
       x="47.09"
       y="-51.946999"
       width="17.156"
       height="47.056"
       id="rect19"
       style="fill:#063c51" />
    <path
       d="M 64.246,51.946 V 4.89 H 47.09 v 3.2394 c 1.0911,-1.0664 2.2663,-1.6472 3.4915,-1.6472 5.7417,0 10.395,12.752 10.395,28.482 0,6.3639 -0.76181,12.241 -2.0494,16.982 z"
       id="path21"
       inkscape:connector-curvature="0"
       style="fill:#01374b" />
    <path
       d="m 55.934,35.407 c -1.0015,0 -1.814,0.81186 -1.814,1.814 v 6.2323 c 0,1.0015 0.81186,1.814 1.814,1.814 1.0015,0 1.814,-0.81186 1.814,-1.814 V 37.221 c 0,-1.0015 -0.81186,-1.814 -1.814,-1.814 z"
       id="path23"
       inkscape:connector-curvature="0"
       style="fill:#081926" />
    <circle
       id="lamp-button"
       transform="scale(1,-1)"
       cx="55.933998"
       cy="-37"
       r="2.0778"
       style="fill:#f0bd25" />
    <path
       style="opacity:0.478;fill:#cc7b9c;fill-opacity:1;fill-rule:evenodd;stroke:none;stroke-width:1px;stroke-linecap:butt;stroke-linejoin:miter;stroke-opacity:1"
       d="m 43.668,80 -43.975767,43.97577 c 0,0 18.227396,8.625 56.225767,8.625 37.998371,0 55.62992,-8.625 55.62992,-8.625 L 67.563459,80 Z"
       id="path4513"
       inkscape:connector-curvature="0"
       sodipodi:nodetypes="cczccc" />
    <path
       style="opacity:0.478;fill:#cc7b9c;fill-opacity:1;fill-rule:evenodd;stroke:none;stroke-width:1px;stroke-linecap:butt;stroke-linejoin:miter;stroke-opacity:1"
       d="M 28.845703,100 3.8554688,149.51367 c 8.9967872,1.67604 21.0568912,3.08789 36.3945312,3.08789 14.811934,0 26.48887,-1.31468 35.273438,-2.91406 L 52.261719,100.36719 51.894531,100 Z"
       transform="translate(15.668,-20)"
       id="path4519"
       inkscape:connector-curvature="0" />
  </g>
</svg>
