<svg width="7.4422mm" height="6.8808mm" inkscape:version="0.92.1 r15371" sodipodi:docname="Ben and I walking - Optimized.svg" version="1.1" viewBox="0 0 7.4421892 6.8808022" xmlns="http://www.w3.org/2000/svg" xmlns:inkscape="http://www.inkscape.org/namespaces/inkscape" xmlns:sodipodi="http://sodipodi.sourceforge.net/DTD/sodipodi-0.dtd">
 <sodipodi:namedview id="base" bordercolor="#666666" borderopacity="1.0" fit-margin-bottom="0" fit-margin-left="0" fit-margin-right="0" fit-margin-top="0" inkscape:current-layer="layer1" inkscape:cx="23.088092" inkscape:cy="13.323964" inkscape:document-units="mm" inkscape:pageopacity="0.0" inkscape:pageshadow="2" inkscape:window-height="716" inkscape:window-maximized="1" inkscape:window-width="1366" inkscape:window-x="-8" inkscape:window-y="22" inkscape:zoom="7.9195959" pagecolor="#ffffff" showgrid="false"/>
 <g transform="translate(151.89 -126.49)" inkscape:groupmode="layer" inkscape:label="Layer 1">
  <path d="m-150.36 126.49c-0.13417 2.2e-4 -0.2331 0.0325-0.33642 0.11007-0.0924 0.0694-0.16846 0.18566-0.19894 0.30284-0.0161 0.0636-0.0183 0.18725-4e-3 0.25474 6e-3 0.0267 0.0267 0.0833 0.047 0.1256 0.0313 0.0654 0.0473 0.0877 0.10697 0.14674 0.0793 0.0786 0.15291 0.12052 0.25374 0.14523 0.11612 0.0286 0.25696 0.0161 0.3607-0.0326 0.12264-0.0574 0.21143-0.1442 0.26924-0.26355 0.0756-0.15796 0.0736-0.32764-6e-3 -0.48938-0.0311-0.0629-0.0496-0.0889-0.10335-0.1421-0.11123-0.11018-0.22987-0.15785-0.38912-0.15762zm3.4758 0.293c-0.1284 1.9e-4 -0.22355 0.0311-0.32245 0.10544-0.0884 0.0664-0.16107 0.17775-0.19018 0.2899-0.0156 0.0609-0.0177 0.17931-4e-3 0.2439 5e-3 0.0257 0.0257 0.0799 0.0449 0.12041 0.03 0.0626 0.0452 0.0835 0.10232 0.14004 0.0758 0.0753 0.14639 0.11584 0.24289 0.13954 0.11115 0.0273 0.2459 0.0151 0.3452-0.0315 0.11736-0.0549 0.20203-0.13793 0.25735-0.25218 0.0731-0.15121 0.0717-0.3139-5e-3 -0.46871-0.0298-0.0601-0.0478-0.0845-0.0992-0.13539-0.10647-0.10541-0.21965-0.15163-0.37209-0.15142zm-2.0557 0.45167c-0.0151 0-0.0921 0.0355-0.20516 0.094-0.19402 0.10043-0.20762 0.11199-0.19481 0.16279 8e-3 0.0325 0.78126 1.5316 0.80357 1.558 0.0106 0.0122 0.0282 0.0243 0.0372 0.0254 0.01 3e-3 0.0241 3e-3 0.032 0 0.0302-7e-3 0.3592-0.18068 0.37258-0.1969 7e-3 -9e-3 0.014-0.0276 0.014-0.0408 0-0.0312-0.78501-1.5579-0.81441-1.5839-0.0114-0.0101-0.0312-0.018-0.0449-0.018zm3.4148 0.26146c-0.0146 0-0.0882 0.0334-0.19635 0.0894-0.18566 0.0962-0.19928 0.10737-0.18709 0.15608 8e-3 0.0311 0.74869 1.4661 0.76999 1.4914 0.0101 0.0119 0.0262 0.0233 0.0351 0.0243 9e-3 3e-3 0.023 3e-3 0.031 0 0.0289-7e-3 0.34314-0.17258 0.35605-0.18809 8e-3 -9e-3 0.014-0.0266 0.014-0.0393 0-0.0299-0.7516-1.4913-0.77978-1.5162-0.0111-9e-3 -0.0298-0.0169-0.0429-0.0169zm-4.2013 0.0951c-0.1616-8e-3 -0.34208 0.0238-0.46558 0.0837-0.0626 0.0304-0.0878 0.0489-0.14211 0.10335-0.0748 0.075-0.12864 0.16189-0.15195 0.24598-0.0273 0.0984-0.089 0.51911-0.10851 0.73898l-6e-3 0.061-0.64701 0.48937c-0.46302 0.3502-0.64641 0.49382-0.6444 0.50281 3e-3 7e-3 0.0402 0.068 0.0853 0.13539l0.0821 0.12248 0.10078-0.0563c0.0554-0.0309 0.10348-0.056 0.10748-0.0558 4e-3 1.3e-4 0.11332 0.18685 0.24339 0.41494 0.13012 0.2281 0.3638 0.63641 0.51988 0.90744 0.15607 0.27104 0.28408 0.49631 0.28421 0.50229 1.3e-4 5e-3 -0.0755 0.31266-0.16796 0.68318-0.0925 0.37052-0.16576 0.67551-0.16277 0.6785 6e-3 6e-3 0.52665 0.20764 0.52864 0.20465 0 0 0.0477-0.19163 0.10491-0.42322 0.0572-0.23162 0.10549-0.42437 0.1075-0.42739 3e-3 -3e-3 0.10766 0.1732 0.2346 0.39275 0.12695 0.21955 0.23905 0.41262 0.24805 0.42892l0.0175 0.0294 0.0729 6e-3c0.0402 3e-3 0.0857 7e-3 0.10128 8e-3 0.0791 6e-3 0.15542 3e-3 0.15142-6e-3 -3e-3 -6e-3 -0.1661-0.29284-0.36433-0.63873l-0.36018-0.62892 0.062-0.25011 0.0625-0.25011 0.21238-0.27699 0.21291-0.27697h0.0853l0.56999 1.156c0.31324 0.6358 0.57007 1.1577 0.57102 1.1586 3e-3 5e-3 0.36135-0.2608 0.36537-0.2713 3e-3 -6e-3 -0.20955-0.65763-0.47078-1.4485l-0.47492-1.4376 0.0486-0.0537c0.0603-0.0658 0.0993-0.12348 0.13436-0.19947 0.0388-0.0842 0.0524-0.14372 0.0584-0.24442 8e-3 -0.15997-0.0148-0.24733-0.13382-0.51419-0.15333-0.3438-0.5692-1.1557-0.67231-1.3121-0.0249-0.0378-0.0773-0.1-0.11575-0.13848-0.0557-0.0557-0.0844-0.0772-0.13955-0.10438-0.063-0.0303-0.076-0.0352-0.14573-0.0383zm3.4473 0.24701c-0.1547-8e-3 -0.32774 0.0233-0.44596 0.0806-0.0599 0.0291-0.0839 0.0466-0.13591 0.0987-0.0716 0.0718-0.1229 0.15515-0.14521 0.23566-0.0262 0.0941-0.0852 0.497-0.10387 0.70745l-5e-3 0.0579-0.6196 0.46868c-0.44321 0.33523-0.61852 0.47212-0.61651 0.48112 3e-3 7e-3 0.0385 0.0652 0.0816 0.1297l0.0786 0.11731 0.0966-0.0537c0.053-0.0296 0.0988-0.0539 0.10285-0.0538 4e-3 1.6e-4 0.10803 0.17907 0.23254 0.39741 0.12451 0.21833 0.34877 0.60925 0.49816 0.86868 0.14941 0.25945 0.2717 0.47559 0.2718 0.48059 1.4e-4 5e-3 -0.0722 0.29906-0.1607 0.6537-0.0885 0.35468-0.15854 0.64709-0.15555 0.65008 6e-3 6e-3 0.50339 0.19836 0.5054 0.19535 0 0 0.046-0.18347 0.10076-0.40513 0.0548-0.2217 0.10136-0.40577 0.10337-0.40879 3e-3 -3e-3 0.10274 0.16555 0.22426 0.37571 0.12155 0.21016 0.22821 0.39513 0.2372 0.41082l0.0164 0.0284 0.0703 5e-3c0.0383 3e-3 0.0815 6e-3 0.0966 7e-3 0.0755 7e-3 0.1487 4e-3 0.1447-5e-3 -3e-3 -5e-3 -0.15906-0.28075-0.34882-0.61185l-0.34468-0.6015 0.0594-0.23979 0.0594-0.23927 0.20363-0.26508 0.20359-0.26511h0.0821l0.5452 1.1064c0.29982 0.60857 0.54575 1.108 0.54673 1.109 3e-3 5e-3 0.34584-0.24932 0.34986-0.25943 3e-3 -6e-3 -0.20111-0.62947-0.45114-1.3865l-0.45424-1.3762 0.0465-0.0512c0.0577-0.063 0.0951-0.1184 0.12866-0.19118 0.0372-0.0806 0.0508-0.13769 0.0558-0.23411 8e-3 -0.15311-0.0143-0.23651-0.12817-0.49196-0.14673-0.32909-0.54466-1.106-0.64335-1.2557-0.0238-0.0362-0.0737-0.0959-0.1106-0.1328-0.0533-0.0533-0.0811-0.0742-0.13382-0.10025-0.0604-0.0297-0.0728-0.0337-0.13954-0.0367zm-3.8897 0.9674c5e-3 0 0.39119 0.90003 0.42839 0.99734l0.0175 0.046-0.093 0.14832c-0.17124 0.27382-0.30065 0.51369-0.35915 0.66506-0.0151 0.0391-0.0622 0.21061-0.10438 0.38087-0.0424 0.17026-0.0797 0.31498-0.0827 0.32297-4e-3 0.01-0.0384-0.0439-0.12454-0.19481-0.0652-0.1143-0.26606-0.46498-0.44648-0.7798l-0.32814-0.57259 0.44233-0.24545 0.44236-0.24546 0.10128-0.26148c0.0557-0.14365 0.10345-0.26096 0.10647-0.26096zm3.467 0.19428c5e-3 0 0.3747 0.86138 0.41032 0.95448l0.0169 0.0439-0.0894 0.1421c-0.16391 0.2621-0.28763 0.49176-0.34364 0.63664-0.0143 0.0374-0.0593 0.20135-0.0997 0.36433-0.0405 0.16296-0.0766 0.30203-0.0796 0.30904-4e-3 9e-3 -0.0365-0.0416-0.11888-0.18606-0.0624-0.10938-0.25466-0.44534-0.42735-0.7467l-0.3142-0.5483 0.42323-0.23461 0.42376-0.23513 0.0966-0.25011c0.0534-0.13751 0.0988-0.24961 0.10181-0.24961z" fill="#808080" inkscape:connector-curvature="0"/>
 </g>
</svg>
